<svg width="24" height="24" viewBox="0 0 24 24" fill="none" xmlns="http://www.w3.org/2000/svg">
<path d="M12.4492 12.0216C12.5134 12.0002 12.599 11.9788 12.6631 11.9574C12.5134 11.6152 12.3423 11.2729 12.1711 10.9307C9.30484 11.7863 6.52409 11.8505 5.73265 11.8505C5.66848 11.8505 5.6043 11.8505 5.56152 11.8505C5.56152 11.8932 5.56152 11.9574 5.56152 12.0002C5.56152 13.6259 6.18184 15.1232 7.18719 16.2569C7.44388 15.8291 9.21928 13.0697 12.4492 12.0216Z" fill="#A4B5E2"/>
<path d="M13.1121 13.1123C9.58268 14.3316 8.25648 16.7487 8.06396 17.1123C9.15487 17.9465 10.5239 18.4599 11.9998 18.4599C12.8768 18.4599 13.7324 18.2888 14.4811 17.9679C14.3955 17.3476 14.0105 15.4225 13.1121 13.1123C13.1335 13.1123 13.1121 13.1123 13.1121 13.1123Z" fill="#A4B5E2"/>
<path d="M11.5933 9.86078C10.5666 8.0426 9.45425 6.5025 9.24035 6.18164C7.46495 7.03726 6.13874 8.66292 5.71094 10.6308H5.77511C6.35265 10.6522 8.81254 10.5881 11.5933 9.86078Z" fill="#A4B5E2"/>
<path d="M16.2566 7.1658C15.1016 6.18184 13.6256 5.56152 12 5.56152C11.508 5.56152 11.016 5.62569 10.5454 5.73265C10.8021 6.09628 11.9144 7.615 12.9197 9.45457C15.1016 8.64174 16.0641 7.42249 16.2566 7.1658Z" fill="#A4B5E2"/>
<path d="M12 0C5.36898 0 0 5.36898 0 12C0 18.631 5.36898 24 12 24C18.631 24 24 18.631 24 12C24 5.36898 18.631 0 12 0ZM12 19.615C7.7861 19.615 4.36364 16.1925 4.36364 12C4.36364 7.80749 7.7861 4.38503 12 4.38503C16.2139 4.38503 19.6364 7.80749 19.6364 12C19.6364 16.1925 16.2139 19.615 12 19.615Z" fill="#A4B5E2"/>
<path d="M13.4546 10.4815C13.6043 10.781 13.7327 11.0804 13.861 11.3799C13.9038 11.4868 13.9466 11.5938 13.9893 11.6794C14.4813 11.6152 14.9947 11.5938 15.4653 11.5938C16.9412 11.5938 18.1605 11.8291 18.4386 11.8719C18.4172 10.3959 17.8824 9.02694 17.0054 7.93604C16.7915 8.27828 15.7006 9.5617 13.4546 10.4815Z" fill="#A4B5E2"/>
<path d="M14.417 12.7915C15.2084 14.9947 15.5721 16.8129 15.6576 17.3049C17.0694 16.3423 18.0747 14.8022 18.3742 13.0482C18.1389 12.9626 17.0694 12.6846 15.7218 12.6846C15.294 12.6846 14.8662 12.7274 14.417 12.7915Z" fill="#A4B5E2"/>
</svg>
