<svg width="24" height="24" viewBox="0 0 24 24" fill="none" xmlns="http://www.w3.org/2000/svg">
<path d="M15.5814 6.38721H8.41887C7.26965 6.38721 6.36096 7.32262 6.36096 8.44511V15.6077C6.36096 16.7569 7.29637 17.6656 8.41887 17.6656H15.5814C16.7307 17.6656 17.6394 16.7302 17.6394 15.6077V8.44511C17.6394 7.32262 16.7039 6.38721 15.5814 6.38721ZM12.0002 15.7413C9.94225 15.7413 8.28524 14.0843 8.28524 12.0264C8.28524 9.9685 9.94225 8.31148 12.0002 8.31148C14.0581 8.31148 15.7151 9.9685 15.7151 12.0264C15.7151 14.0843 14.0313 15.7413 12.0002 15.7413ZM15.822 9.08654C15.3409 9.08654 14.94 8.68565 14.94 8.20458C14.94 7.72351 15.3409 7.32262 15.822 7.32262C16.3031 7.32262 16.7039 7.72351 16.7039 8.20458C16.7039 8.68565 16.3031 9.08654 15.822 9.08654Z" fill="#A4B5E2"/>
<path d="M12 9.88867C10.8241 9.88867 9.86194 10.8508 9.86194 12.0268C9.86194 13.2027 10.8241 14.1648 12 14.1648C13.176 14.1648 14.1381 13.2027 14.1381 12.0268C14.1381 10.8508 13.176 9.88867 12 9.88867Z" fill="#A4B5E2"/>
<path d="M12 0C5.37194 0 0 5.37194 0 12C0 18.6281 5.37194 24 12 24C18.6281 24 24 18.6281 24 12C24 5.37194 18.6281 0 12 0ZM19.216 15.608C19.216 17.6125 17.5857 19.2428 15.5813 19.2428H8.41871C6.41425 19.2428 4.78396 17.6125 4.78396 15.608V8.44543C4.78396 6.44098 6.41425 4.81069 8.41871 4.81069H15.5813C17.5857 4.81069 19.216 6.44098 19.216 8.44543V15.608Z" fill="#A4B5E2"/>
</svg>
