<svg width="24" height="24" viewBox="0 0 24 24" fill="none" xmlns="http://www.w3.org/2000/svg">
<path d="M13.2833 10.5453V10.5239C13.2833 10.5239 13.2619 10.5239 13.2833 10.5453Z" fill="#A4B5E2"/>
<path d="M12 0C5.36898 0 0 5.36898 0 12C0 18.631 5.36898 24 12 24C18.631 24 24 18.631 24 12C24 5.36898 18.631 0 12 0ZM8.83422 17.9037H5.96791V9.28342H8.83422V17.9037ZM7.40107 8.10695C6.41711 8.10695 5.79679 7.44385 5.79679 6.60963C5.79679 5.75401 6.4385 5.1123 7.42246 5.1123C8.40642 5.1123 9.00535 5.75401 9.02674 6.60963C9.02674 7.44385 8.38503 8.10695 7.40107 8.10695ZM19.1658 17.9037H16.2995V13.3048C16.2995 12.1497 15.893 11.3583 14.8449 11.3583C14.0535 11.3583 13.5829 11.893 13.369 12.4064C13.2834 12.5989 13.2834 12.8556 13.2834 13.1123V17.9251H10.4171C10.4171 17.9251 10.4599 10.1176 10.4171 9.30481H13.2834V10.5241C13.6684 9.94652 14.3529 9.09091 15.8717 9.09091C17.754 9.09091 19.1658 10.3316 19.1658 12.9626V17.9037Z" fill="#A4B5E2"/>
</svg>
