<?xml version="1.0" encoding="utf-8"?>
<!-- Generator: Adobe Illustrator 24.2.0, SVG Export Plug-In . SVG Version: 6.00 Build 0)  -->
<svg version="1.1" id="Layer_1" xmlns="http://www.w3.org/2000/svg" xmlns:xlink="http://www.w3.org/1999/xlink" x="0px" y="0px"
	 viewBox="0 0 1339.7 292.3" style="enable-background:new 0 0 1339.7 292.3;" xml:space="preserve">
<style type="text/css">
	.st0{fill:#4070C5;}
	.st1{fill:#FFFFFF;}
</style>
<g>
	<g>
		<g>
			<path class="st0" d="M772,273.9c-2.9,0-5.6-0.5-8.1-1.6s-4.6-2.5-6.4-4.4c-1.8-1.8-3.2-4-4.3-6.5c-1-2.5-1.5-5.2-1.5-8.1v-0.1
				c0-2.9,0.5-5.5,1.5-8c1-2.5,2.4-4.7,4.3-6.6s4-3.4,6.5-4.5c2.5-1.1,5.3-1.6,8.3-1.6c1.8,0,3.5,0.2,5,0.5c1.5,0.3,2.9,0.7,4.1,1.3
				c1.3,0.5,2.4,1.2,3.5,2c1.1,0.8,2.1,1.6,3,2.5l-4.5,5.2c-1.6-1.5-3.3-2.7-5.1-3.6c-1.8-0.9-3.8-1.4-6.1-1.4
				c-1.9,0-3.7,0.4-5.3,1.1s-3,1.8-4.2,3c-1.2,1.3-2.1,2.8-2.7,4.5c-0.7,1.7-1,3.5-1,5.5v0.1c0,1.9,0.3,3.8,1,5.5
				c0.6,1.7,1.6,3.2,2.7,4.5c1.2,1.3,2.6,2.3,4.2,3c1.6,0.7,3.4,1.1,5.3,1.1c2.4,0,4.5-0.5,6.3-1.4c1.8-0.9,3.5-2.2,5.2-3.8l4.5,4.6
				c-1,1.1-2.1,2.1-3.2,2.9c-1.1,0.9-2.3,1.6-3.6,2.2c-1.3,0.6-2.7,1.1-4.3,1.4C775.6,273.7,773.9,273.9,772,273.9z"/>
			<path class="st0" d="M845.9,233.2h7v33.6h21v6.4h-28V233.2z"/>
			<path class="st0" d="M948.3,273.9c-3.1,0-5.9-0.5-8.5-1.6c-2.6-1.1-4.7-2.6-6.6-4.4c-1.8-1.9-3.3-4-4.3-6.5c-1-2.5-1.5-5.1-1.5-8
				v-0.1c0-2.8,0.5-5.5,1.5-8c1-2.5,2.5-4.7,4.3-6.6c1.9-1.9,4.1-3.4,6.6-4.5c2.6-1.1,5.4-1.7,8.5-1.7s5.9,0.5,8.5,1.6
				c2.6,1.1,4.7,2.6,6.6,4.4c1.8,1.9,3.3,4,4.3,6.5c1,2.5,1.5,5.1,1.5,8v0.1c0,2.8-0.5,5.5-1.5,8c-1,2.5-2.5,4.7-4.3,6.6
				c-1.9,1.9-4.1,3.4-6.6,4.5C954.2,273.3,951.3,273.9,948.3,273.9z M948.4,267.4c2,0,3.8-0.4,5.5-1.1c1.7-0.7,3.1-1.7,4.3-3
				c1.2-1.3,2.1-2.7,2.8-4.5c0.7-1.7,1-3.5,1-5.5v-0.1c0-1.9-0.3-3.8-1-5.5c-0.7-1.7-1.6-3.2-2.8-4.5c-1.2-1.3-2.6-2.3-4.3-3.1
				c-1.7-0.8-3.5-1.1-5.5-1.1s-3.8,0.4-5.5,1.1c-1.7,0.7-3.1,1.8-4.3,3c-1.2,1.3-2.1,2.8-2.8,4.5c-0.7,1.7-1,3.5-1,5.5v0.1
				c0,1.9,0.3,3.8,1,5.5c0.7,1.7,1.6,3.2,2.8,4.5c1.2,1.3,2.6,2.3,4.3,3.1C944.6,267,946.4,267.4,948.4,267.4z"/>
			<path class="st0" d="M1044.4,273.8c-2.6,0-4.9-0.4-7-1.1c-2.1-0.7-3.9-1.9-5.4-3.3s-2.6-3.3-3.4-5.5c-0.8-2.2-1.2-4.7-1.2-7.6
				v-23h7v22.7c0,3.7,0.9,6.6,2.7,8.5s4.3,2.9,7.4,2.9c3.1,0,5.6-0.9,7.4-2.8c1.8-1.8,2.7-4.6,2.7-8.3v-23h7v22.7
				c0,3-0.4,5.6-1.2,7.8c-0.8,2.2-2,4.1-3.5,5.6c-1.5,1.5-3.3,2.6-5.4,3.4C1049.4,273.5,1047,273.8,1044.4,273.8z"/>
			<path class="st0" d="M1121.5,233.2h14.9c3.1,0,6,0.5,8.6,1.5c2.6,1,4.9,2.4,6.7,4.2c1.9,1.8,3.3,3.9,4.4,6.3c1,2.4,1.5,5,1.5,7.9
				v0.1c0,2.8-0.5,5.4-1.5,7.9c-1,2.4-2.5,4.6-4.4,6.3s-4.1,3.2-6.7,4.2c-2.6,1-5.5,1.5-8.6,1.5h-14.9V233.2z M1128.5,239.6v27.2
				h7.9c2.1,0,4-0.3,5.7-1s3.2-1.6,4.4-2.8s2.1-2.6,2.8-4.3c0.7-1.7,1-3.5,1-5.4v-0.1c0-1.9-0.3-3.8-1-5.4s-1.6-3.1-2.8-4.3
				c-1.2-1.2-2.7-2.1-4.4-2.8s-3.6-1-5.7-1H1128.5z"/>
		</g>
		
			<rect x="1263.7" y="180.5" transform="matrix(-1.836970e-16 1 -1 -1.836970e-16 1520.1871 -1013.7723)" class="st0" width="6.6" height="145.3"/>
		
			<rect x="639" y="180.5" transform="matrix(-1.836970e-16 1 -1 -1.836970e-16 895.5339 -389.1192)" class="st0" width="6.6" height="145.3"/>
	</g>
	<g>
		<path class="st1" d="M569.7,117.5h15.6v74.7H632v14.2h-62.4V117.5z"/>
		<path class="st1" d="M677.3,162.2v-0.3c0-25,19.3-46,46.6-46c27.3,0,46.4,20.7,46.4,45.7v0.3c0,25-19.3,46-46.6,46
			C696.3,207.9,677.3,187.2,677.3,162.2z M753.8,162.2v-0.3c0-17.3-12.6-31.6-30.2-31.6c-17.7,0-30,14.1-30,31.4v0.3
			c0,17.3,12.6,31.5,30.2,31.5C741.5,193.4,753.8,179.5,753.8,162.2z"/>
		<path class="st1" d="M844.1,132h-28.2v-14.5h72.1V132h-28.2v74.4h-15.7V132z"/>
		<path class="st1" d="M964.4,132h-28.2v-14.5h72.1V132h-28.2v74.4h-15.7V132z"/>
		<path class="st1" d="M1063.7,117.5h15.6v88.9h-15.6V117.5z"/>
		<path class="st1" d="M1141.1,117.5h66.2v14.2h-50.5V156h44.8v14.2h-44.8v36.2h-15.6V117.5z"/>
		<path class="st1" d="M1288.6,171.3l-35.3-53.8h18.5l24.8,39.2l25.1-39.2h17.9l-35.3,53.5v35.4h-15.7V171.3z"/>
	</g>
</g>
<g>
	<path class="st0" d="M478.1,196.6c-3.8-38.6-33.2-70.3-71.4-76.9c-5-0.9-10.1-1.3-15.1-1.3c-2.3,0-4.6,0.1-6.9,0.3l-1.9,0.2
		l-0.7-1.8c-12.2-31.3-43.1-52.4-76.9-52.4c-2.7,0-5.5,0.1-8.2,0.4l-1.8,0.2l-0.8-1.6C276.3,25,237.2,0,194.8,0
		C137.7,0,89.6,44.6,85.3,101.4l-0.2,2.1l-2.1,0.3c-21.5,2.6-41,12.2-56.2,27.9C8.8,150.2-0.7,174.6,0,200.3
		c1.4,50.7,44.5,91.9,96.2,91.9h47.4v-30.1H96.2c-35.5,0-65.1-28.1-66.1-62.6c-0.5-17.6,6-34.2,18.2-46.7
		c12.2-12.6,28.6-19.5,46.2-19.5c1.4,0,2.9,0.1,4.8,0.2l17.7,1.3l-1.6-17.7c-0.2-2.6-0.3-5-0.3-7.2c0-43.9,35.7-79.7,79.7-79.7
		c34.9,0,66.3,23.3,76.3,56.8l4.3,14.5l14.5-4.4c4.9-1.5,10.1-2.3,15.2-2.3c25.8,0,47.6,18.5,51.7,43.9l2.7,16.7l16.3-4.7
		c5.1-1.5,10.4-2.2,15.6-2.2c3.3,0,6.6,0.3,10,0.9c25,4.3,44.1,25,46.6,50.1c1.6,16.3-3.5,31.9-14.4,43.9
		c-10.8,11.9-26.1,18.7-42.1,18.7h-56v30.1h56c24.5,0,48-10.4,64.4-28.6C472.4,245.6,480.5,221.1,478.1,196.6z"/>
	<polygon class="st0" points="209.1,111.9 178.9,111.9 178.9,292.3 300.3,292.3 300.3,262.1 209.1,262.1 	"/>
</g>
</svg>
