<?xml version="1.0" encoding="utf-8"?>
<!-- Generator: Adobe Illustrator 24.2.0, SVG Export Plug-In . SVG Version: 6.00 Build 0)  -->
<svg version="1.1" id="Ebene_1" xmlns="http://www.w3.org/2000/svg" xmlns:xlink="http://www.w3.org/1999/xlink" x="0px" y="0px"
	 viewBox="0 0 368 81.5" style="enable-background:new 0 0 368 81.5;" xml:space="preserve">
<style type="text/css">
	.st0{fill:#FFFFFF;}
	.st1{fill:#4070C5;}
</style>
<g>
	<g>
		<g>
			<g>
				<path class="st0" d="M152.5,30.9h5.4v26h16.3v5h-21.7L152.5,30.9L152.5,30.9z"/>
				<g>
					<path class="st0" d="M180.6,46.5L180.6,46.5c0-8.8,6.7-16.1,16.2-16.1c9.5,0,16.1,7.2,16.1,15.9v0.1c0,8.7-6.7,16-16.2,16
						C187.2,62.4,180.6,55.2,180.6,46.5z M207.3,46.5L207.3,46.5c0-6.1-4.4-11.1-10.5-11.1c-6.1,0-10.4,4.9-10.4,10.9v0.1
						c0,6,4.4,11,10.5,11C203,57.4,207.3,52.5,207.3,46.5z"/>
					<path class="st0" d="M229.4,36h-9.8v-5h25.1v5h-9.8v25.9h-5.5V36z"/>
					<path class="st0" d="M263,36h-9.8v-5h25.1v5h-9.8v25.9H263V36z"/>
					<path class="st0" d="M289.4,30.9h5.4v31h-5.4V30.9z"/>
					<path class="st0" d="M307.1,30.9h23v5h-17.6v8.4h15.6v5h-15.6v12.6h-5.4V30.9z"/>
					<path class="st0" d="M350.2,49.7l-12.3-18.8h6.5l8.6,13.7l8.8-13.7h6.2l-12.3,18.6v12.4h-5.5V49.7z"/>
				</g>
			</g>
			<g>
				<g>
					<path class="st1" d="M209.1,81.5c-0.8,0-1.6-0.1-2.3-0.4c-0.7-0.3-1.3-0.7-1.8-1.2s-0.9-1.1-1.2-1.8s-0.4-1.5-0.4-2.3l0,0
						c0-0.8,0.1-1.5,0.4-2.2c0.3-0.7,0.7-1.3,1.2-1.8s1.1-0.9,1.8-1.2s1.5-0.5,2.3-0.5c0.5,0,1,0,1.4,0.1s0.8,0.2,1.2,0.4
						s0.7,0.3,1,0.5s0.6,0.4,0.8,0.7l-1.3,1.5c-0.4-0.4-0.9-0.8-1.4-1s-1.1-0.4-1.7-0.4c-0.5,0-1,0.1-1.5,0.3s-0.8,0.5-1.2,0.8
						c-0.3,0.4-0.6,0.8-0.8,1.3s-0.3,1-0.3,1.5l0,0c0,0.5,0.1,1.1,0.3,1.5c0.2,0.5,0.4,0.9,0.8,1.3c0.3,0.4,0.7,0.6,1.2,0.8
						s0.9,0.3,1.5,0.3c0.7,0,1.3-0.1,1.8-0.4c0.5-0.3,1-0.6,1.5-1.1l1.3,1.3c-0.3,0.3-0.6,0.6-0.9,0.8c-0.3,0.2-0.7,0.4-1,0.6
						c-0.4,0.2-0.8,0.3-1.2,0.4C210.1,81.5,209.6,81.5,209.1,81.5z"/>
					<path class="st1" d="M229.8,70.2h2v9.4h5.9v1.8h-7.8V70.2H229.8z"/>
					<path class="st1" d="M258.4,81.5c-0.9,0-1.7-0.2-2.4-0.5c-0.7-0.3-1.3-0.7-1.8-1.2s-0.9-1.1-1.2-1.8s-0.4-1.4-0.4-2.2l0,0
						c0-0.8,0.1-1.5,0.4-2.2c0.3-0.7,0.7-1.3,1.2-1.8s1.1-0.9,1.9-1.3c0.7-0.3,1.5-0.5,2.4-0.5s1.7,0.2,2.4,0.5s1.3,0.7,1.8,1.2
						s0.9,1.1,1.2,1.8s0.4,1.4,0.4,2.2l0,0c0,0.8-0.1,1.5-0.4,2.2c-0.3,0.7-0.7,1.3-1.2,1.8s-1.1,0.9-1.9,1.3
						C260.1,81.4,259.3,81.5,258.4,81.5z M258.5,79.7c0.6,0,1.1-0.1,1.5-0.3c0.5-0.2,0.9-0.5,1.2-0.8c0.3-0.4,0.6-0.8,0.8-1.2
						c0.2-0.5,0.3-1,0.3-1.5l0,0c0-0.5-0.1-1.1-0.3-1.5c-0.2-0.5-0.4-0.9-0.8-1.3s-0.7-0.6-1.2-0.9c-0.5-0.2-1-0.3-1.5-0.3
						s-1.1,0.1-1.5,0.3s-0.9,0.5-1.2,0.8c-0.3,0.3-0.6,0.8-0.8,1.3s-0.3,1-0.3,1.5l0,0c0,0.5,0.1,1.1,0.3,1.5
						c0.2,0.5,0.4,0.9,0.8,1.3c0.3,0.4,0.7,0.6,1.2,0.9C257.4,79.6,257.9,79.7,258.5,79.7z"/>
					<path class="st1" d="M285.4,81.5c-0.7,0-1.4-0.1-2-0.3s-1.1-0.5-1.5-0.9s-0.7-0.9-1-1.5c-0.2-0.6-0.3-1.3-0.3-2.1v-6.4h2v6.4
						c0,1,0.3,1.8,0.8,2.4s1.2,0.8,2.1,0.8c0.9,0,1.6-0.3,2.1-0.8s0.8-1.3,0.8-2.3v-6.4h2v6.3c0,0.8-0.1,1.6-0.3,2.2
						c-0.2,0.6-0.6,1.2-1,1.6c-0.4,0.4-0.9,0.7-1.5,0.9C286.7,81.4,286.1,81.5,285.4,81.5z"/>
					<path class="st1" d="M306.9,70.2h4.2c0.9,0,1.7,0.1,2.4,0.4c0.7,0.3,1.4,0.7,1.9,1.2s0.9,1.1,1.2,1.8s0.4,1.4,0.4,2.2l0,0
						c0,0.8-0.1,1.5-0.4,2.2c-0.3,0.7-0.7,1.3-1.2,1.8s-1.2,0.9-1.9,1.2s-1.5,0.4-2.4,0.4h-4.2V70.2z M308.9,71.9v7.6h2.2
						c0.6,0,1.1-0.1,1.6-0.3s0.9-0.4,1.2-0.8c0.3-0.3,0.6-0.7,0.8-1.2s0.3-1,0.3-1.5l0,0c0-0.5-0.1-1.1-0.3-1.5
						c-0.2-0.5-0.4-0.9-0.8-1.2s-0.7-0.6-1.2-0.8s-1-0.3-1.6-0.3H308.9z"/>
				</g>
				<rect x="327.3" y="74.8" class="st1" width="40.7" height="1.8"/>
				<rect x="152.5" y="74.8" class="st1" width="40.7" height="1.8"/>
			</g>
		</g>
	</g>
	<path class="st1" d="M132.9,54.9c-1.1-10.7-9.2-19.5-19.9-21.4c-1.4-0.2-2.8-0.4-4.2-0.4c-0.6,0-1.3,0-1.9,0.1h-0.5l-0.2-0.5
		c-3.4-8.7-12-14.6-21.4-14.6c-0.8,0-1.5,0-2.3,0.1H82l-0.2-0.5C76.8,7,65.9,0,54.1,0C38.2,0,24.8,12.4,23.6,28.2v0.6L23,28.9
		c-6,0.7-11.4,3.4-15.6,7.8c-5,5.1-7.6,11.9-7.4,19.1c0.4,14.1,12.4,25.6,26.7,25.6h13.2V73H26.7c-9.9,0-18.1-7.8-18.4-17.4
		c-0.1-4.9,1.7-9.5,5.1-13s8-5.4,12.8-5.4c0.4,0,0.8,0,1.3,0.1l4.9,0.4L32,32.8c-0.1-0.7-0.1-1.4-0.1-2c0-12.2,9.9-22.2,22.2-22.2
		c9.7,0,18.4,6.5,21.2,15.8l1.2,4l4-1.2c1.4-0.4,2.8-0.6,4.2-0.6c7.2,0,13.2,5.1,14.4,12.2l0.8,4.6l4.5-1.3c1.4-0.4,2.9-0.6,4.3-0.6
		c0.9,0,1.8,0.1,2.8,0.2c6.9,1.2,12.3,6.9,13,13.9c0.4,4.5-1,8.9-4,12.2s-7.3,5.2-11.7,5.2H93.2v8.4h15.6c6.8,0,13.3-2.9,17.9-7.9
		C131.4,68.5,133.6,61.7,132.9,54.9z"/>
	<polygon class="st1" points="58.1,31.4 49.7,31.4 49.7,81.5 83.5,81.5 83.5,73.2 58.1,73.2 	"/>
</g>
</svg>
