<svg width="31" height="26" viewBox="0 0 31 26" fill="none" xmlns="http://www.w3.org/2000/svg">
<path d="M2 1.50098H10.1C11.5322 1.50098 12.9057 2.02774 13.9184 2.96539C14.9311 3.90304 15.5 5.17477 15.5 6.5008V24.0002C15.5 23.0057 15.0733 22.0519 14.3138 21.3486C13.5543 20.6454 12.5241 20.2503 11.45 20.2503H2V1.50098Z" stroke="white" stroke-width="3" stroke-linecap="round" stroke-linejoin="round"/>
<path d="M29 1.50098H20.9C19.4678 1.50098 18.0943 2.02774 17.0816 2.96539C16.0689 3.90304 15.5 5.17477 15.5 6.5008V24.0002C15.5 23.0057 15.9267 22.0519 16.6862 21.3486C17.4457 20.6454 18.4759 20.2503 19.55 20.2503H29V1.50098Z" stroke="white" stroke-width="3" stroke-linecap="round" stroke-linejoin="round"/>
</svg>
