<svg width="37" height="27" viewBox="0 0 37 27" fill="none" xmlns="http://www.w3.org/2000/svg">
<path d="M27.502 10.6255H25.6125C25.0515 8.54255 23.8922 6.65222 22.2664 5.16931C20.6406 3.68639 18.6135 2.67035 16.4154 2.23664C14.2173 1.80292 11.9364 1.96892 9.83181 2.71578C7.72722 3.46263 5.88336 4.76039 4.50975 6.4616C3.13614 8.1628 2.28786 10.1992 2.0613 12.3395C1.83474 14.4798 2.23898 16.638 3.22809 18.5691C4.21719 20.5001 5.75151 22.1265 7.65669 23.2634C9.56187 24.4003 11.7615 25.0021 14.0057 25.0005H27.502C29.4906 25.0005 31.3978 24.2432 32.8039 22.8953C34.21 21.5474 35 19.7192 35 17.813C35 15.9067 34.21 14.0786 32.8039 12.7307C31.3978 11.3827 29.4906 10.6255 27.502 10.6255Z" stroke="white" stroke-width="3.5" stroke-linecap="round" stroke-linejoin="round"/>
</svg>
