<?xml version="1.0" encoding="utf-8"?>
<!-- Generator: Adobe Illustrator 24.2.0, SVG Export Plug-In . SVG Version: 6.00 Build 0)  -->
<svg version="1.1" id="Ebene_1" xmlns="http://www.w3.org/2000/svg" xmlns:xlink="http://www.w3.org/1999/xlink" x="0px" y="0px"
	 viewBox="0 0 33 36" style="enable-background:new 0 0 33 36;" xml:space="preserve">
<style type="text/css">
	.st0{fill:#4070C5;}
</style>
<path class="st0" d="M16.7,0c0.3,0,0.8,0,1.1,0.1c2.4,0.8,4.1,2.3,4.4,4.9c0.4,3.9-2.7,6.3-5.6,6.3c-3,0-5.4-2.4-5.5-5.4
	c-0.1-1.6,0.4-3,1.6-4.2C13.7,0.6,15,0,16.7,0z M20.6,6.4c0-0.2,0-0.4-0.2-0.3c-0.7,0.2-1.4,0.3-2.2,0.3c-1.1,0-2.1-0.2-3.1-0.5
	c-0.8-0.3-1.5-0.7-2.1-1.2c-0.1-0.1-0.1-0.2-0.3-0.2c-0.1,0-0.1,0.2-0.2,0.3c-0.2,0.9-0.1,1.8,0.4,2.7c0.6,1.2,1.7,2,3,2.2
	C17,9.9,18,9.7,18.9,9C19.8,8.4,20.4,7.5,20.6,6.4z M18.3,4.9c0.5-0.1,1.2-0.1,1.8-0.3c0.3-0.1,0.3-0.2,0.2-0.5
	c-0.1-0.4-0.3-0.7-0.6-1c-0.6-0.8-1.5-1.4-2.5-1.6c-1.4-0.2-2.7,0.1-3.7,1.2c-0.2,0.2-0.2,0.3,0,0.5c0.4,0.3,0.8,0.6,1.2,0.8
	C15.9,4.6,17,4.9,18.3,4.9z"/>
<path class="st0" d="M31.2,24.2c0.2,3-2.4,5.5-5,5.7c-3.5,0.3-5.8-2.4-6.1-4.6c-0.6-4,2.6-6.4,5.1-6.5
	C28.4,18.5,31.1,21.1,31.2,24.2z M25.2,28.5c1.3,0,2.2-0.3,3-1c0.8-0.7,1.3-1.5,1.4-2.5c0-0.2-0.1-0.3-0.3-0.2
	c-0.8,0.3-1.6,0.4-2.4,0.3c-1.8-0.1-3.5-0.6-4.9-1.7c-0.3-0.2-0.4-0.1-0.4,0.2c-0.2,0.9-0.1,1.7,0.3,2.5
	C22.6,27.6,23.8,28.4,25.2,28.5z M25.7,20.3c-1.3,0-2.2,0.4-3.1,1.3c-0.2,0.2-0.2,0.3,0,0.4c0.6,0.5,1.2,0.9,1.9,1.1
	c1.5,0.6,3,0.7,4.5,0.3c0.5-0.1,0.6-0.3,0.4-0.7c-0.1-0.2-0.2-0.4-0.3-0.6C28.2,20.9,27.1,20.3,25.7,20.3z"/>
<path class="st0" d="M7.6,18.8c3.1-0.1,5.4,2.6,5.6,5c0.3,3.8-2.7,6.3-5.6,6.3c-3.2,0-5.5-2.5-5.6-5.4C1.8,21.2,4.6,18.7,7.6,18.8z
	 M7.4,28.5c1.2,0,2.1-0.3,2.9-1c0.7-0.7,1.3-1.5,1.4-2.5c0-0.2-0.1-0.2-0.2-0.2c-0.8,0.3-1.7,0.4-2.5,0.3C7.1,25,5.5,24.5,4,23.4
	c-0.3-0.3-0.4-0.1-0.5,0.2c-0.2,0.9,0,1.7,0.3,2.5C4.6,27.6,5.9,28.4,7.4,28.5z M9.2,23.6c0.6-0.1,1.3-0.1,1.9-0.3
	c0.3-0.1,0.4-0.3,0.3-0.6c-0.4-0.9-1-1.6-1.9-2c-1.6-0.9-3.6-0.6-4.9,0.7c-0.2,0.2-0.2,0.4,0,0.6C6,23.1,7.5,23.6,9.2,23.6z"/>
<path class="st0" d="M7.5,30.8c2.1,0,3.9,0.7,5.5,2c0.7,0.6,1.3,1.3,1.8,2c0.2,0.3,0.2,0.6-0.1,0.9c-0.3,0.4-0.6,0.3-0.9,0.2
	c-0.2-0.1-0.4-0.3-0.5-0.5c-1.2-1.6-2.8-2.7-4.8-3c-1.4-0.2-2.8,0-4.1,0.6c-1.3,0.6-2.3,1.5-3.1,2.6C1.2,36,0.8,36,0.5,36
	c0,0-0.1,0-0.1-0.1c-0.3-0.3-0.5-0.7-0.2-1.1c0.8-1.1,1.7-2.1,3-2.8C4.5,31.2,5.9,30.8,7.5,30.8z"/>
<path class="st0" d="M25.5,30.8c2.1,0,3.9,0.7,5.5,2c0.7,0.6,1.3,1.3,1.8,2c0.2,0.3,0.2,0.6-0.1,0.9c-0.3,0.3-0.6,0.3-0.9,0.2
	c-0.2,0-0.3-0.3-0.4-0.5c-0.7-0.9-1.4-1.7-2.4-2.2c-1.3-0.7-2.7-1-4.1-0.9c-1.1,0.1-2.2,0.4-3.2,1c-0.9,0.5-1.6,1.2-2.2,2.1
	c-0.2,0.3-0.4,0.7-0.8,0.6c-0.1,0-0.3,0.1-0.4-0.1c-0.3-0.3-0.5-0.7-0.2-1.1c0.9-1.3,2-2.3,3.4-3C22.8,31.2,24.1,30.8,25.5,30.8z"/>
<path class="st0" d="M15.6,12.1c0.9-0.1,1.9,0,2.8,0.2c1,0.2,1.9,0.6,2.7,1.1c1.1,0.7,2,1.5,2.7,2.6c0.2,0.4,0.2,0.8-0.2,1.1
	c-0.3,0.2-0.7,0.2-1-0.2c-0.7-1-1.6-1.9-2.7-2.5c-1.1-0.6-2.3-0.9-3.6-0.9c-1,0-1.9,0.2-2.8,0.6c-1.1,0.5-2,1.2-2.7,2.1
	c-0.3,0.4-0.5,0.9-1.1,0.9c-0.3,0-0.5-0.2-0.7-0.4c-0.2-0.3-0.1-0.5,0.1-0.8c0.8-1.2,1.8-2.1,3.1-2.9c0.7-0.4,1.5-0.8,2.4-0.9
	C14.9,12.3,15.2,12.1,15.6,12.1z"/>
</svg>
