<svg width="32" height="32" viewBox="0 0 32 32" fill="none" xmlns="http://www.w3.org/2000/svg">
<path d="M9.83656 9.25H4.625C2.07475 9.25 0 7.17525 0 4.625C0 2.07475 2.07475 0 4.625 0H9.875C10.5654 0 11.125 0.559625 11.125 1.25C11.125 1.94037 10.5654 2.5 9.875 2.5H4.625C3.45325 2.5 2.5 3.45325 2.5 4.625C2.5 5.79675 3.45325 6.75 4.625 6.75H9.83656C10.5269 6.75 11.0866 7.30963 11.0866 8C11.0866 8.69038 10.5269 9.25 9.83656 9.25ZM32 4.625C32 2.07475 29.9253 0 27.375 0H14.875C14.1846 0 13.625 0.559625 13.625 1.25C13.625 1.94037 14.1846 2.5 14.875 2.5H27.375C28.5467 2.5 29.5 3.45325 29.5 4.625C29.5 5.79675 28.5467 6.75 27.375 6.75H14.8366C14.1462 6.75 13.5866 7.30963 13.5866 8C13.5866 8.69038 14.1462 9.25 14.8366 9.25H27.375C29.9253 9.25 32 7.17525 32 4.625ZM31.9375 16C31.9375 13.4497 29.8628 11.375 27.3125 11.375H25.5625C24.8721 11.375 24.3125 11.9346 24.3125 12.625C24.3125 13.3154 24.8721 13.875 25.5625 13.875H27.3125C28.4842 13.875 29.4375 14.8282 29.4375 16C29.4375 17.1717 28.4842 18.125 27.3125 18.125H25.5625C24.8721 18.125 24.3125 18.6846 24.3125 19.375C24.3125 20.0654 24.8721 20.625 25.5625 20.625H27.3125C29.8628 20.625 31.9375 18.5503 31.9375 16ZM21.8125 19.375C21.8125 18.6846 21.2529 18.125 20.5625 18.125H4.625C3.45325 18.125 2.5 17.1717 2.5 16C2.5 14.8282 3.45325 13.875 4.625 13.875H20.5625C21.2529 13.875 21.8125 13.3154 21.8125 12.625C21.8125 11.9346 21.2529 11.375 20.5625 11.375H4.625C2.07475 11.375 0 13.4497 0 16C0 18.5503 2.07475 20.625 4.625 20.625H20.5625C21.2529 20.625 21.8125 20.0654 21.8125 19.375ZM31.9375 27.375C31.9375 24.8247 29.8628 22.75 27.3125 22.75H17.9375C17.2471 22.75 16.6875 23.3096 16.6875 24C16.6875 24.6904 17.2471 25.25 17.9375 25.25H27.3125C28.4842 25.25 29.4375 26.2033 29.4375 27.375C29.4375 28.5467 28.4842 29.5 27.3125 29.5H17.9375C17.2471 29.5 16.6875 30.0596 16.6875 30.75C16.6875 31.4404 17.2471 32 17.9375 32H27.3125C29.8628 32 31.9375 29.9253 31.9375 27.375ZM14.1875 30.75C14.1875 30.0596 13.6279 29.5 12.9375 29.5H4.625C3.45325 29.5 2.5 28.5467 2.5 27.375C2.5 26.2033 3.45325 25.25 4.625 25.25H12.9375C13.6279 25.25 14.1875 24.6904 14.1875 24C14.1875 23.3096 13.6279 22.75 12.9375 22.75H4.625C2.07475 22.75 0 24.8247 0 27.375C0 29.9253 2.07475 32 4.625 32H12.9375C13.6279 32 14.1875 31.4404 14.1875 30.75Z" fill="#4070C5"/>
</svg>
