<svg width="32" height="32" viewBox="0 0 32 32" fill="none" xmlns="http://www.w3.org/2000/svg">
<path d="M32 7.5V17.75C32 18.4404 31.4404 19 30.75 19C30.0596 19 29.5 18.4404 29.5 17.75V7.5C29.5 4.743 27.257 2.5 24.5 2.5H7.5C4.743 2.5 2.5 4.743 2.5 7.5V24.5C2.5 27.257 4.743 29.5 7.5 29.5H17.875C18.5654 29.5 19.125 30.0596 19.125 30.75C19.125 31.4404 18.5654 32 17.875 32H7.5C3.3645 32 0 28.6355 0 24.5V7.5C0 3.3645 3.3645 0 7.5 0H24.5C28.6355 0 32 3.3645 32 7.5ZM27 8.0625C27 7.37212 26.4404 6.8125 25.75 6.8125H6.25C5.55962 6.8125 5 7.37212 5 8.0625C5 8.75287 5.55962 9.3125 6.25 9.3125H25.75C26.4404 9.3125 27 8.75287 27 8.0625ZM16.1875 25.8125C16.8779 25.8125 17.4375 25.2529 17.4375 24.5625V24.3692C18.6629 23.9237 19.5625 22.7608 19.5625 21.4375C19.5625 19.7144 18.0204 18.3125 16.125 18.3125C15.5193 18.3125 15.0625 18.0438 15.0625 17.6875C15.0625 17.3429 15.3429 17.0625 15.6875 17.0625C16.1315 17.0625 16.6716 17.1127 17.6094 17.4775C18.2529 17.7276 18.9773 17.4089 19.2275 16.7656C19.4777 16.1221 19.1589 15.3977 18.5156 15.1475C18.115 14.9917 17.7587 14.8772 17.4375 14.7925V14.5625C17.4375 13.8721 16.8779 13.3125 16.1875 13.3125C15.4971 13.3125 14.9375 13.8721 14.9375 14.5625V14.6541C13.5755 14.991 12.5625 16.2229 12.5625 17.6875C12.5625 19.4691 14.0941 20.8125 16.125 20.8125C16.653 20.8125 17.0625 21.1484 17.0625 21.4375C17.0625 21.7587 16.7132 22.0625 16.3437 22.0625C16.0825 22.0625 15.1902 21.9773 14.2117 21.5884C13.5703 21.3336 12.8434 21.6468 12.5884 22.2883C12.3334 22.9299 12.6467 23.6566 13.2883 23.9116C13.8604 24.139 14.4281 24.2962 14.9376 24.3996V24.5625C14.9375 25.2529 15.4971 25.8125 16.1875 25.8125ZM29.625 22.25C29.625 21.5596 29.0654 21 28.375 21H24.8125C22.7447 21 21.0625 22.6822 21.0625 24.75V28.25C21.0625 28.9404 21.6221 29.5 22.3125 29.5C23.0029 29.5 23.5625 28.9404 23.5625 28.25V24.75C23.5625 24.0607 24.1232 23.5 24.8125 23.5H28.375C29.0654 23.5 29.625 22.9404 29.625 22.25ZM27.5089 25.7411C27.0207 25.2529 26.2292 25.2529 25.7411 25.7411C25.253 26.2293 25.2529 27.0207 25.7411 27.5089L29.8661 31.6339C30.1102 31.8779 30.43 32 30.75 32C31.0699 32 31.3898 31.8779 31.6339 31.6339C32.122 31.1457 32.122 30.3542 31.6339 29.8661L27.5089 25.7411Z" fill="#4070C5"/>
</svg>
