<svg width="32" height="32" viewBox="0 0 32 32" fill="none" xmlns="http://www.w3.org/2000/svg">
<path d="M8.6875 32H7.5C3.3645 32 0 28.6355 0 24.5V7.5C0 3.3645 3.3645 0 7.5 0H24.5C28.6355 0 32 3.3645 32 7.5V13.25C32 13.9404 31.4404 14.5 30.75 14.5C30.0596 14.5 29.5 13.9404 29.5 13.25V7.5C29.5 4.743 27.257 2.5 24.5 2.5H7.5C4.743 2.5 2.5 4.743 2.5 7.5V24.5C2.5 27.257 4.743 29.5 7.5 29.5H8.6875C9.37788 29.5 9.9375 30.0596 9.9375 30.75C9.9375 31.4404 9.37788 32 8.6875 32ZM27 8.0625C27 7.37213 26.4404 6.8125 25.75 6.8125H6.25C5.55963 6.8125 5 7.37213 5 8.0625C5 8.75288 5.55963 9.3125 6.25 9.3125H25.75C26.4404 9.3125 27 8.75288 27 8.0625ZM32 25.75V23.25C32 19.8037 29.1963 17 25.75 17H24.9375C22.42 17 20.1861 18.5009 19.207 20.75H13.7701C12.1064 20.75 10.4729 21.4233 9.28837 22.5974C8.77775 23.1035 8.49656 23.7791 8.49656 24.5C8.49656 25.2209 8.77781 25.8966 9.28837 26.4026C10.4729 27.5767 12.1064 28.25 13.7701 28.25H19.207C20.1861 30.4991 22.42 32 24.9375 32H25.75C29.1963 32 32 29.1963 32 25.75ZM20.0951 23.25C20.6654 23.25 21.1634 22.8639 21.3056 22.3116C21.7317 20.6562 23.2252 19.5 24.9375 19.5H25.75C27.8177 19.5 29.5 21.1823 29.5 23.25V25.75C29.5 27.8177 27.8177 29.5 25.75 29.5H24.9375C23.2252 29.5 21.7317 28.3438 21.3056 26.6884C21.1634 26.1361 20.6654 25.75 20.0951 25.75H13.7701C12.7604 25.75 11.7684 25.3406 11.0483 24.6269C11.0055 24.5846 10.9966 24.5345 10.9966 24.5C10.9966 24.4655 11.0055 24.4154 11.0483 24.3731C11.7683 23.6594 12.7604 23.25 13.7701 23.25H20.0951ZM26.0625 22.9375C25.1996 22.9375 24.5 23.6371 24.5 24.5C24.5 25.3629 25.1996 26.0625 26.0625 26.0625C26.9254 26.0625 27.625 25.3629 27.625 24.5C27.625 23.6371 26.9254 22.9375 26.0625 22.9375Z" fill="#4070C5"/>
</svg>
