<svg width="32" height="32" viewBox="0 0 32 32" fill="none" xmlns="http://www.w3.org/2000/svg">
<path d="M27.375 32C24.8247 32 22.75 29.9253 22.75 27.375V15.875C22.75 13.3247 24.8247 11.25 27.375 11.25C29.9253 11.25 32 13.3247 32 15.875V27.375C32 29.9253 29.9253 32 27.375 32ZM27.375 13.75C26.2033 13.75 25.25 14.7032 25.25 15.875V27.375C25.25 28.5467 26.2033 29.5 27.375 29.5C28.5467 29.5 29.5 28.5467 29.5 27.375V15.875C29.5 14.7032 28.5467 13.75 27.375 13.75ZM4.625 32C2.07475 32 0 29.9253 0 27.375V19.125C0 16.5747 2.07475 14.5 4.625 14.5C7.17525 14.5 9.25 16.5747 9.25 19.125V27.375C9.25 29.9253 7.17525 32 4.625 32ZM4.625 17C3.45325 17 2.5 17.9533 2.5 19.125V27.375C2.5 28.5467 3.45325 29.5 4.625 29.5C5.79675 29.5 6.75 28.5467 6.75 27.375V19.125C6.75 17.9533 5.79675 17 4.625 17ZM20.625 27.375V22.5C20.625 21.8096 20.0654 21.25 19.375 21.25C18.6846 21.25 18.125 21.8096 18.125 22.5V27.375C18.125 28.5467 17.1717 29.5 16 29.5C14.8282 29.5 13.875 28.5467 13.875 27.375V9.625C13.875 8.93462 13.3154 8.375 12.625 8.375H10.9074C10.4692 8.375 10.2964 8.07381 10.2424 7.94425C10.1905 7.81962 10.1015 7.49763 10.3963 7.20025L14.3059 3.25638C14.7894 2.76863 15.4354 2.5 16.125 2.5C16.8146 2.5 17.4606 2.76863 17.9441 3.25644L21.8537 7.20031C22.1485 7.49775 22.0595 7.81969 22.0076 7.94431C21.9536 8.07381 21.7807 8.37506 21.3426 8.37506H19.375C18.6846 8.37506 18.125 8.93469 18.125 9.62506C18.125 10.3154 18.6846 10.8751 19.375 10.8751H21.3426C22.6498 10.8751 23.8166 10.1022 24.3152 8.90606C24.8172 7.70162 24.5543 6.37356 23.6292 5.44031L19.7196 1.49644C18.7631 0.531438 17.4865 0 16.125 0C14.7635 0 13.4869 0.531437 12.5303 1.49637L8.62075 5.44025C7.69563 6.37356 7.43275 7.70156 7.93475 8.906C8.43338 10.1021 9.60019 10.875 10.9074 10.875H11.375V27.375C11.375 29.9253 13.4497 32 16 32C18.5503 32 20.625 29.9253 20.625 27.375ZM20.625 17.6875V14.3125C20.625 13.6221 20.0654 13.0625 19.375 13.0625C18.6846 13.0625 18.125 13.6221 18.125 14.3125V17.6875C18.125 18.3779 18.6846 18.9375 19.375 18.9375C20.0654 18.9375 20.625 18.3779 20.625 17.6875Z" fill="#4070C5"/>
</svg>
