<svg width="32" height="32" viewBox="0 0 32 32" fill="none" xmlns="http://www.w3.org/2000/svg">
<path d="M26.375 12.9375C25.6846 12.9375 25.125 12.3779 25.125 11.6875V6.25C25.125 4.18225 23.4427 2.5 21.375 2.5H10.625C8.55725 2.5 6.875 4.18225 6.875 6.25V11.6875C6.875 12.3779 6.31537 12.9375 5.625 12.9375C4.93463 12.9375 4.375 12.3779 4.375 11.6875V6.25C4.375 2.80369 7.17875 0 10.625 0H21.375C24.8213 0 27.625 2.80369 27.625 6.25V11.6875C27.625 12.3779 27.0654 12.9375 26.375 12.9375ZM30.75 18.875C30.75 16.8073 29.0677 15.125 27 15.125H5C2.93225 15.125 1.25 16.8073 1.25 18.875C1.25 20.9427 2.93225 22.625 5 22.625H27C29.0677 22.625 30.75 20.9427 30.75 18.875ZM27 17.625C27.6893 17.625 28.25 18.1857 28.25 18.875C28.25 19.5643 27.6893 20.125 27 20.125H5C4.31075 20.125 3.75 19.5643 3.75 18.875C3.75 18.1857 4.31075 17.625 5 17.625H27ZM19.8125 28.25C19.8125 26.1823 18.1302 24.5 16.0625 24.5C13.9948 24.5 12.3125 26.1823 12.3125 28.25C12.3125 30.3177 13.9948 32 16.0625 32C18.1302 32 19.8125 30.3177 19.8125 28.25ZM17.3125 28.25C17.3125 28.9393 16.7518 29.5 16.0625 29.5C15.3733 29.5 14.8125 28.9393 14.8125 28.25C14.8125 27.5607 15.3733 27 16.0625 27C16.7518 27 17.3125 27.5607 17.3125 28.25ZM32 28.25C32 27.5596 31.4404 27 30.75 27H23.5625C22.8721 27 22.3125 27.5596 22.3125 28.25C22.3125 28.9404 22.8721 29.5 23.5625 29.5H30.75C31.4404 29.5 32 28.9404 32 28.25ZM9.6875 28.25C9.6875 27.5596 9.12788 27 8.4375 27H1.25C0.559625 27 0 27.5596 0 28.25C0 28.9404 0.559625 29.5 1.25 29.5H8.4375C9.12788 29.5 9.6875 28.9404 9.6875 28.25Z" fill="#4070C5"/>
</svg>
