<svg width="32" height="40" viewBox="0 0 32 40" fill="none" xmlns="http://www.w3.org/2000/svg">
<path d="M22.8353 39.1026H9.16468C4.11127 39.1026 0 34.9914 0 29.9379V9.16468C0 4.11127 4.11127 0 9.16468 0H22.8353C27.8887 0 32 4.11127 32 9.16468V29.9379C32 34.9914 27.8887 39.1026 22.8353 39.1026ZM9.16468 3.05489C5.79574 3.05489 3.05489 5.79574 3.05489 9.16468V29.9379C3.05489 33.3069 5.79574 36.0477 9.16468 36.0477H22.8353C26.2043 36.0477 28.9451 33.3069 28.9451 29.9379V9.16468C28.9451 5.79574 26.2043 3.05489 22.8353 3.05489H9.16468ZM18.0239 30.7017C18.0239 31.7561 17.169 32.611 16.1146 32.611C15.0601 32.611 14.2053 31.7561 14.2053 30.7017C14.2053 29.6472 15.0601 28.7924 16.1146 28.7924C17.169 28.7924 18.0239 29.6472 18.0239 30.7017ZM20.4678 22.8353V14.5871C20.4678 13.7435 19.7839 13.0597 18.9403 13.0597C18.0967 13.0597 17.4129 13.7435 17.4129 14.5871V22.8353C17.4129 23.6789 18.0967 24.3628 18.9403 24.3628C19.7839 24.3628 20.4678 23.6789 20.4678 22.8353ZM25.9666 22.8353V19.1695C25.9666 18.3258 25.2828 17.642 24.4391 17.642C23.5955 17.642 22.9117 18.3258 22.9117 19.1695V22.8353C22.9117 23.6789 23.5955 24.3628 24.4391 24.3628C25.2828 24.3628 25.9666 23.6789 25.9666 22.8353ZM9.24105 22.9117V16.9547C9.24105 16.111 8.55721 15.4272 7.7136 15.4272C6.87 15.4272 6.18616 16.111 6.18616 16.9547V22.9117C6.18616 23.7553 6.87 24.4391 7.7136 24.4391C8.55721 24.4391 9.24105 23.7553 9.24105 22.9117ZM14.8926 22.9117V10.0811C14.8926 9.23754 14.2088 8.5537 13.3652 8.5537C12.5215 8.5537 11.8377 9.23754 11.8377 10.0811V22.9117C11.8377 23.7553 12.5215 24.4391 13.3652 24.4391C14.2088 24.4391 14.8926 23.7553 14.8926 22.9117Z" fill="#4070C5"/>
</svg>
