<svg width="32" height="32" viewBox="0 0 32 32" fill="none" xmlns="http://www.w3.org/2000/svg">
<path d="M14.8752 21.9991V21.4011C14.3006 21.2792 13.6651 21.0973 13.0388 20.8484C12.3973 20.5935 12.084 19.8668 12.3389 19.2254C12.594 18.5838 13.3205 18.2706 13.962 18.5255C15.0027 18.9391 16.0207 19.0933 16.4179 19.0933C16.9027 19.0933 17.3123 18.6998 17.3123 18.2341C17.3123 17.7602 16.8007 17.3748 16.1719 17.3748C13.972 17.3748 12.3131 15.9308 12.3131 14.0159C12.3131 12.4183 13.4373 11.0785 14.9377 10.7403V10.1883C14.9377 9.49806 15.4972 8.93851 16.1875 8.93851C16.8778 8.93851 17.4373 9.49806 17.4373 10.1883V10.8844C17.8717 10.9932 18.3294 11.1419 18.8277 11.3357C19.471 11.5859 19.7897 12.3102 19.5395 12.9536C19.2893 13.5968 18.5651 13.9156 17.9217 13.6654C16.7624 13.2145 16.1146 13.1567 15.6798 13.1567C15.2016 13.1567 14.8127 13.5422 14.8127 14.016C14.8127 14.5058 15.3971 14.8752 16.1719 14.8752C17.1219 14.8752 18.0187 15.2063 18.697 15.8075C19.416 16.4448 19.812 17.3066 19.812 18.2341C19.812 19.7574 18.7818 21.0462 17.3748 21.4562V21.9992C17.3748 22.6895 16.8153 23.249 16.125 23.249C15.4347 23.249 14.8752 22.6894 14.8752 21.9991ZM31.1854 26.3735C31.1854 28.9578 29.0828 31.0603 26.4985 31.0603C23.9142 31.0603 21.8117 28.9578 21.8117 26.3735C21.8117 23.7892 23.9142 21.6867 26.4985 21.6867C29.0828 21.6867 31.1854 23.7891 31.1854 26.3735ZM28.6857 26.3735C28.6857 25.1675 27.7045 24.1863 26.4985 24.1863C25.2925 24.1863 24.3113 25.1675 24.3113 26.3735C24.3113 27.5795 25.2925 28.5607 26.4985 28.5607C27.7045 28.5607 28.6857 27.5795 28.6857 26.3735ZM1.00218 5.62649C1.00218 3.04217 3.10469 0.939657 5.68901 0.939657C8.27333 0.939657 10.3758 3.04217 10.3758 5.62649C10.3758 8.2108 8.27333 10.3133 5.68901 10.3133C3.10469 10.3133 1.00218 8.2108 1.00218 5.62649ZM3.50182 5.62649C3.50182 6.8325 4.48299 7.81367 5.68901 7.81367C6.89502 7.81367 7.8762 6.8325 7.8762 5.62649C7.8762 4.42047 6.89502 3.4393 5.68901 3.4393C4.48299 3.4393 3.50182 4.42047 3.50182 5.62649ZM21.7492 5.62649C21.7492 3.04217 23.8517 0.939657 26.436 0.939657C29.0204 0.939657 31.1229 3.04217 31.1229 5.62649C31.1229 8.2108 29.0204 10.3133 26.436 10.3133C23.8517 10.3133 21.7492 8.2108 21.7492 5.62649ZM24.2488 5.62649C24.2488 6.8325 25.23 7.81367 26.436 7.81367C27.642 7.81367 28.6232 6.8325 28.6232 5.62649C28.6232 4.42047 27.642 3.4393 26.436 3.4393C25.23 3.4393 24.2488 4.42047 24.2488 5.62649ZM10.4383 26.311C10.4383 28.8953 8.33582 30.9979 5.7515 30.9979C3.16718 30.9979 1.06467 28.8953 1.06467 26.311C1.06467 23.7267 3.16718 21.6242 5.7515 21.6242C8.33582 21.6242 10.4383 23.7266 10.4383 26.311ZM7.93869 26.311C7.93869 25.105 6.95751 24.1238 5.7515 24.1238C4.54549 24.1238 3.56431 25.105 3.56431 26.311C3.56431 27.517 4.54549 28.4982 5.7515 28.4982C6.95751 28.4982 7.93869 27.517 7.93869 26.311ZM31.6565 12.7403C31.5146 12.0647 30.8519 11.6321 30.1764 11.774C29.5009 11.916 29.0683 12.5786 29.2103 13.2541C29.5938 15.0799 29.5966 16.9319 29.2186 18.7588C29.0788 19.4347 29.5133 20.096 30.1893 20.2359C30.2748 20.2536 30.3598 20.2621 30.4438 20.2621C31.0241 20.2621 31.5443 19.8557 31.6664 19.2652C32.1145 17.0996 32.1112 14.9043 31.6565 12.7403ZM18.7588 29.2187C16.9318 29.5966 15.0797 29.5937 13.2542 29.2102C12.5786 29.0686 11.916 29.5009 11.7741 30.1765C11.6322 30.852 12.0648 31.5146 12.7403 31.6566C13.8304 31.8855 14.9281 32 16.0262 32C17.1081 32 18.1905 31.8888 19.2652 31.6664C19.9412 31.5267 20.3757 30.8654 20.2359 30.1893C20.0961 29.5134 19.4346 29.0784 18.7588 29.2187ZM13.2412 2.78127C15.0682 2.40345 16.9203 2.4062 18.7459 2.7897C18.8326 2.80789 18.9189 2.81664 19.004 2.81664C19.5827 2.81658 20.1023 2.41232 20.2259 1.82347C20.3678 1.14794 19.9352 0.485347 19.2598 0.343367C17.0957 -0.11113 14.9004 -0.114442 12.7349 0.333494C12.0589 0.473286 11.6243 1.13457 11.7641 1.81059C11.904 2.48656 12.5655 2.92144 13.2412 2.78127ZM1.82356 20.226C2.49909 20.084 2.93165 19.4214 2.78974 18.7459C2.40623 16.9201 2.40342 15.0681 2.78136 13.2412C2.92122 12.5653 2.48665 11.904 1.81069 11.7641C1.13429 11.6239 0.47338 12.0589 0.333587 12.7348C-0.114473 14.9003 -0.111161 17.0957 0.343461 19.2597C0.467131 19.8486 0.986619 20.2529 1.56535 20.2529C1.65046 20.2528 1.73695 20.2441 1.82356 20.226Z" fill="#4070C5"/>
</svg>
