<svg width="32" height="32" viewBox="0 0 32 32" fill="none" xmlns="http://www.w3.org/2000/svg">
<path d="M13.25 25.25H7.49868C3.36393 25.25 0 21.8861 0 17.7513V7.49999C0 3.3645 3.3645 0 7.49999 0H24.5C28.6355 0 32 3.3645 32 7.49999V17.75C32 18.4404 31.4404 19 30.75 19C30.0596 19 29.5 18.4404 29.5 17.75V7.49999C29.5 4.743 27.257 2.5 24.5 2.5H7.49999C4.743 2.5 2.5 4.743 2.5 7.49999V17.7513C2.5 20.5076 4.74243 22.75 7.49868 22.75H13.25C13.9404 22.75 14.5 23.3096 14.5 24C14.5 24.6904 13.9404 25.25 13.25 25.25ZM28.6875 22.745C28.6875 19.4711 26.0239 16.8075 22.75 16.8075C19.476 16.8075 16.8125 19.4711 16.8125 22.745C16.8125 26.019 19.476 28.6825 22.75 28.6825C26.0239 28.6825 28.6875 26.019 28.6875 22.745ZM26.1875 22.745C26.1875 24.6405 24.6454 26.1825 22.75 26.1825C20.8545 26.1825 19.3125 24.6405 19.3125 22.745C19.3125 20.8496 20.8545 19.3075 22.75 19.3075C24.6454 19.3075 26.1875 20.8496 26.1875 22.745ZM31.6347 31.6296C32.1224 31.141 32.1217 30.3495 31.633 29.8619L29.883 28.1153C29.3944 27.6277 28.6029 27.6284 28.1153 28.117C27.6276 28.6056 27.6284 29.3971 28.117 29.8848L29.867 31.6313C30.111 31.8748 30.4305 31.9966 30.75 31.9966C31.0703 31.9966 31.3906 31.8742 31.6347 31.6296ZM21 12.6562C21 9.89924 18.757 7.65624 16 7.65624C13.243 7.65624 11 9.89924 11 12.6562C11 15.4132 13.243 17.6562 16 17.6562C18.757 17.6562 21 15.4133 21 12.6562ZM18.5 12.6562C18.5 14.0347 17.3785 15.1562 16 15.1562C14.6215 15.1562 13.5 14.0347 13.5 12.6562C13.5 11.2777 14.6215 10.1562 16 10.1562C17.3785 10.1562 18.5 11.2778 18.5 12.6562ZM27.0625 8.43749C27.0625 7.74712 26.5029 7.18749 25.8125 7.18749C25.2955 7.18749 24.875 6.76693 24.875 6.25C24.875 5.55962 24.3154 5 23.625 5C22.9346 5 22.375 5.55962 22.375 6.25C22.375 8.14543 23.917 9.68749 25.8125 9.68749C26.5029 9.68749 27.0625 9.12787 27.0625 8.43749ZM9.74999 6.375C9.74999 5.68462 9.19037 5.125 8.49999 5.125C7.80962 5.125 7.24999 5.68462 7.24999 6.375C7.24999 6.89193 6.82943 7.31249 6.3125 7.31249C5.62212 7.31249 5.0625 7.87212 5.0625 8.56249C5.0625 9.25287 5.62212 9.81249 6.3125 9.81249C8.20793 9.81249 9.74999 8.27043 9.74999 6.375ZM9.74999 18.875C9.74999 16.9795 8.20793 15.4375 6.3125 15.4375C5.62212 15.4375 5.0625 15.9971 5.0625 16.6875C5.0625 17.3779 5.62212 17.9375 6.3125 17.9375C6.82943 17.9375 7.24999 18.358 7.24999 18.875C7.24999 19.5654 7.80962 20.125 8.49999 20.125C9.19037 20.125 9.74999 19.5654 9.74999 18.875Z" fill="#4070C5"/>
</svg>
