<svg width="32" height="32" viewBox="0 0 32 32" fill="none" xmlns="http://www.w3.org/2000/svg">
<path d="M32 21.8438C32 25.0316 29.4066 27.625 26.2188 27.625H13.625C12.9346 27.625 12.375 27.0654 12.375 26.375C12.375 25.6846 12.9346 25.125 13.625 25.125H26.2188C28.028 25.125 29.5 23.653 29.5 21.8438C29.5 20.6188 28.8243 19.5042 27.7367 18.935C27.1725 18.6397 26.9204 17.9674 27.1516 17.3739C27.3413 16.8866 27.4375 16.3718 27.4375 15.8438C27.4375 13.5175 25.545 11.625 23.2188 11.625C23.0437 11.625 22.8664 11.636 22.6919 11.6576C22.025 11.7402 21.4112 11.2801 21.3041 10.6161C20.8727 7.94137 18.5894 6 15.875 6C15.2638 6 14.6641 6.09925 14.0924 6.295C13.4396 6.5185 12.7286 6.1705 12.5049 5.51731C12.2813 4.86419 12.6295 4.15344 13.2826 3.92981C14.1155 3.64456 14.9878 3.5 15.875 3.5C17.7873 3.5 19.6382 4.18569 21.0868 5.43069C22.2342 6.41694 23.0746 7.70431 23.5173 9.13156C27.0842 9.28813 29.9375 12.2389 29.9375 15.8438C29.9375 16.3341 29.8851 16.8178 29.7812 17.2903C31.1702 18.3744 32 20.0411 32 21.8438ZM11.875 15.9777V21.25C11.875 21.543 11.7828 21.8138 11.5951 22.0384C11.5157 22.1409 9.6235 24.6447 9.6235 29.2868C9.6235 30.7829 8.34775 32 6.77962 32H5.09531C3.52719 32 2.25144 30.7828 2.25144 29.2868C2.25144 24.5781 0.302438 22.0659 0.282813 22.0419C0.0999375 21.8185 0 21.5387 0 21.25V15.9778C0 12.9229 2.48537 10.4375 5.54025 10.4375H6.33481C9.38963 10.4375 11.875 12.9229 11.875 15.9777ZM9.375 15.9777C9.375 14.3013 8.01119 12.9375 6.33475 12.9375H5.54025C3.86381 12.9375 2.5 14.3013 2.5 15.9777V20.8499C3.16363 21.8452 4.75144 24.7057 4.75144 29.2868C4.75144 29.3691 4.90881 29.5 5.09531 29.5H6.77962C6.96613 29.5 7.1235 29.3691 7.1235 29.2868C7.1235 24.7057 8.71131 21.8452 9.37494 20.8499V15.9777H9.375ZM1.625 4.25C1.625 1.90656 3.53156 0 5.875 0C8.21844 0 10.125 1.90656 10.125 4.25C10.125 6.59344 8.21844 8.5 5.875 8.5C3.53156 8.5 1.625 6.59344 1.625 4.25ZM4.125 4.25C4.125 5.21494 4.91006 6 5.875 6C6.83994 6 7.625 5.21494 7.625 4.25C7.625 3.28506 6.83994 2.5 5.875 2.5C4.91006 2.5 4.125 3.28506 4.125 4.25Z" fill="#4070C5"/>
</svg>
