<svg width="32" height="32" viewBox="0 0 32 32" fill="none" xmlns="http://www.w3.org/2000/svg">
<path d="M16.8421 32H15.1579C13.5898 32 12.314 30.7828 12.314 29.2868C12.314 24.5781 10.365 22.0659 10.3453 22.0419C10.1624 21.8185 10.0625 21.5387 10.0625 21.25V15.9778C10.0625 12.9229 12.5479 10.4375 15.6027 10.4375H16.3972C19.4521 10.4375 21.9375 12.9229 21.9375 15.9777V21.25C21.9375 21.543 21.8452 21.8138 21.6576 22.0384C21.5782 22.1409 19.686 24.6447 19.686 29.2868C19.686 30.7828 18.4102 32 16.8421 32ZM12.5625 20.8499C13.2262 21.8452 14.8139 24.7057 14.8139 29.2868C14.8139 29.3691 14.9713 29.5 15.1578 29.5H16.8421C17.0286 29.5 17.1859 29.3691 17.1859 29.2868C17.1859 24.7057 18.7738 21.8452 19.4374 20.8499V15.9777C19.4375 14.3013 18.0736 12.9375 16.3972 12.9375H15.6027C13.9264 12.9375 12.5625 14.3013 12.5625 15.9777V20.8499ZM15.9375 8.5C13.5941 8.5 11.6875 6.59344 11.6875 4.25C11.6875 1.90656 13.5941 0 15.9375 0C18.2809 0 20.1875 1.90656 20.1875 4.25C20.1875 6.59344 18.2809 8.5 15.9375 8.5ZM15.9375 2.5C14.9726 2.5 14.1875 3.28506 14.1875 4.25C14.1875 5.21494 14.9726 6 15.9375 6C16.9024 6 17.6875 5.21494 17.6875 4.25C17.6875 3.28506 16.9024 2.5 15.9375 2.5ZM28.0077 21.4476L30.9006 18.5624C31.6095 17.8556 32 16.9156 32 15.9155C32 14.9154 31.6096 13.9754 30.9006 13.2685C30.8984 13.2663 30.8962 13.2641 30.894 13.2619L28.0009 10.4206C27.5084 9.937 26.717 9.94406 26.2332 10.4366C25.7495 10.9292 25.7567 11.7206 26.2492 12.2043L29.1383 15.0417C29.3716 15.2757 29.5001 15.5859 29.5001 15.9154C29.5001 16.2463 29.3706 16.5574 29.1354 16.7919L26.2424 19.6773C25.7536 20.1648 25.7526 20.9563 26.24 21.4451C26.4841 21.6901 26.8045 21.8125 27.125 21.8125C27.4443 21.8125 27.7637 21.6909 28.0077 21.4476ZM5.76006 21.4452C6.24756 20.9564 6.2465 20.1649 5.75769 19.6774L2.86444 16.7919C2.62944 16.5576 2.5 16.2463 2.5 15.9156C2.5 15.586 2.62844 15.2758 2.86175 15.0418L5.75087 12.2044C6.24337 11.7207 6.25056 10.9293 5.76681 10.4368C5.28306 9.94413 4.49169 9.93712 3.99913 10.4207L1.10606 13.2621C1.10381 13.2642 1.10162 13.2664 1.09944 13.2686C0.390437 13.9754 0 14.9154 0 15.9155C0 16.9156 0.3905 17.8556 1.09925 18.5622L3.99231 21.4476C4.23625 21.6909 4.55562 21.8125 4.875 21.8125C5.19544 21.8125 5.51588 21.69 5.76006 21.4452Z" fill="#4070C5"/>
</svg>
