<svg width="32" height="35" viewBox="0 0 32 35" fill="none" xmlns="http://www.w3.org/2000/svg">
<path d="M28.3312 22.377V20.586C28.3312 18.3382 26.5025 16.5096 24.2548 16.5096C22.007 16.5096 20.1783 18.3382 20.1783 20.586V22.3539C18.0109 23.0689 16.4416 25.1121 16.4416 27.5159V29.3503C16.4416 32.3473 18.8799 34.7856 21.8769 34.7856H26.5648C29.5618 34.7856 32 32.3473 32 29.3503V27.5159C32 25.1373 30.4634 23.112 28.3312 22.377ZM24.2548 19.2272C25.004 19.2272 25.6136 19.8367 25.6136 20.586V22.0807H22.896V20.586C22.896 19.8367 23.5055 19.2272 24.2548 19.2272ZM29.2824 29.3503C29.2824 30.8488 28.0633 32.0679 26.5648 32.0679H21.8769C20.3784 32.0679 19.1592 30.8488 19.1592 29.3503V27.5159C19.1592 26.0174 20.3784 24.7983 21.8769 24.7983H26.5648C28.0633 24.7983 29.2824 26.0174 29.2824 27.5159V29.3503ZM13.2484 18.344C18.3058 18.344 22.4204 14.2294 22.4204 9.17198C22.4204 4.11455 18.3058 0 13.2484 0C8.19098 0 4.07643 4.11455 4.07643 9.17198C4.07643 14.2294 8.19098 18.344 13.2484 18.344ZM13.2484 2.71762C16.8073 2.71762 19.7028 5.61304 19.7028 9.17198C19.7028 12.7309 16.8073 15.6263 13.2484 15.6263C9.68948 15.6263 6.79406 12.7309 6.79406 9.17198C6.79406 5.61304 9.68948 2.71762 13.2484 2.71762ZM25.9986 28.3992C25.9986 29.3372 25.2381 30.0977 24.3001 30.0977C23.362 30.0977 22.6016 29.3372 22.6016 28.3992C22.6016 27.4611 23.362 26.7006 24.3001 26.7006C25.2381 26.7006 25.9986 27.4611 25.9986 28.3992ZM15.0828 22.4204C15.0828 23.1709 14.4745 23.7792 13.724 23.7792H12.3652C7.0455 23.7792 2.71762 28.1071 2.71762 33.4268C2.71762 34.1772 2.10928 34.7856 1.35881 34.7856C0.60834 34.7856 0 34.1772 0 33.4268C0 26.6086 5.54701 21.0616 12.3652 21.0616H13.724C14.4745 21.0616 15.0828 21.6699 15.0828 22.4204Z" fill="#4070C5"/>
</svg>
