<svg width="32" height="37" viewBox="0 0 32 37" fill="none" xmlns="http://www.w3.org/2000/svg">
<path d="M1.41593 36.2478C0.633912 36.2478 0 35.6139 0 34.8319C0 27.7271 5.78018 21.9469 12.885 21.9469H15.0088C16.5687 21.9469 18.094 22.2229 19.5425 22.7675C20.2745 23.0427 20.6448 23.8591 20.3697 24.5911C20.0945 25.3232 19.2781 25.6935 18.5461 25.4183C17.4173 24.9939 16.2271 24.7788 15.0088 24.7788H12.885C7.34166 24.7788 2.83186 29.2886 2.83186 34.8319C2.83186 35.6139 2.19795 36.2478 1.41593 36.2478ZM23.3628 9.55752C23.3628 4.2875 19.0753 0 13.8053 0C8.53529 0 4.24779 4.2875 4.24779 9.55752C4.24779 14.8275 8.53529 19.115 13.8053 19.115C19.0753 19.115 23.3628 14.8275 23.3628 9.55752ZM20.531 9.55752C20.531 13.2661 17.5138 16.2832 13.8053 16.2832C10.0968 16.2832 7.07965 13.2661 7.07965 9.55752C7.07965 5.84899 10.0968 2.83186 13.8053 2.83186C17.5138 2.83186 20.531 5.84899 20.531 9.55752ZM32 32V28.2603C32 25.8721 30.0571 23.9292 27.669 23.9292H23.9292C23.1472 23.9292 22.5133 24.5631 22.5133 25.3451C22.5133 26.1271 23.1472 26.7611 23.9292 26.7611H27.669C28.4956 26.7611 29.1681 27.4336 29.1681 28.2603V32C29.1681 32.782 29.8021 33.4159 30.5841 33.4159C31.3661 33.4159 32 32.782 32 32ZM27.0765 31.1365C27.6165 30.571 27.5958 29.6747 27.0303 29.1347C26.4647 28.5946 25.5685 28.6153 25.0284 29.1807C22.4151 31.9172 18.7463 33.4867 14.9625 33.4867H14.3009C13.5189 33.4867 12.885 34.1206 12.885 34.9027C12.885 35.6847 13.5189 36.3186 14.3009 36.3186H14.9625C19.5162 36.3186 23.9315 34.4297 27.0765 31.1365Z" fill="#4070C5"/>
</svg>
