<svg width="30" height="30" viewBox="0 0 30 30" fill="none" xmlns="http://www.w3.org/2000/svg">
<g clip-path="url(#clip0)">
<path d="M17.8113 25.3125H16.5613C16.3924 25.3092 16.2317 25.2391 16.1146 25.1174C15.9974 24.9958 15.9332 24.8326 15.9363 24.6638V4.3975C15.9348 4.31394 15.9498 4.23091 15.9804 4.15315C16.011 4.07538 16.0566 4.00441 16.1146 3.94428C16.1727 3.88415 16.242 3.83605 16.3186 3.80271C16.3953 3.76938 16.4777 3.75146 16.5613 3.75H17.8113" stroke="#4070C5" stroke-width="1.875" stroke-linecap="round" stroke-linejoin="round"/>
<path d="M13.1238 15H15.9363" stroke="#4070C5" stroke-width="1.875" stroke-linecap="round" stroke-linejoin="round"/>
<path d="M24.3738 6.5625C25.9271 6.5625 27.1863 5.3033 27.1863 3.75C27.1863 2.1967 25.9271 0.9375 24.3738 0.9375C22.8205 0.9375 21.5613 2.1967 21.5613 3.75C21.5613 5.3033 22.8205 6.5625 24.3738 6.5625Z" stroke="#4070C5" stroke-width="1.875" stroke-linecap="round" stroke-linejoin="round"/>
<path d="M29.0613 11.25C28.7827 10.2066 28.1776 9.27969 27.3343 8.60493C26.4911 7.93018 25.4541 7.54298 24.375 7.5C23.2957 7.54272 22.2584 7.9298 21.4149 8.60457C20.5714 9.27935 19.9661 10.2064 19.6875 11.25H29.0613Z" stroke="#4070C5" stroke-width="1.875" stroke-linecap="round" stroke-linejoin="round"/>
<path d="M24.3738 24.375C25.9271 24.375 27.1863 23.1158 27.1863 21.5625C27.1863 20.0092 25.9271 18.75 24.3738 18.75C22.8205 18.75 21.5613 20.0092 21.5613 21.5625C21.5613 23.1158 22.8205 24.375 24.3738 24.375Z" stroke="#4070C5" stroke-width="1.875" stroke-linecap="round" stroke-linejoin="round"/>
<path d="M29.0613 29.0625C28.7827 28.0189 28.1773 27.0918 27.3339 26.4171C26.4904 25.7423 25.4531 25.3552 24.3738 25.3125C23.2945 25.3552 22.2572 25.7423 21.4137 26.4171C20.5702 27.0918 19.9649 28.0189 19.6863 29.0625H29.0613Z" stroke="#4070C5" stroke-width="1.875" stroke-linecap="round" stroke-linejoin="round"/>
<path d="M6.56128 15C8.63235 15 10.3113 13.3211 10.3113 11.25C10.3113 9.17893 8.63235 7.5 6.56128 7.5C4.49021 7.5 2.81128 9.17893 2.81128 11.25C2.81128 13.3211 4.49021 15 6.56128 15Z" stroke="#4070C5" stroke-width="1.875" stroke-linecap="round" stroke-linejoin="round"/>
<path d="M0.936279 22.5C0.936279 21.0082 1.52891 19.5774 2.5838 18.5225C3.6387 17.4676 5.06944 16.875 6.56128 16.875C8.05312 16.875 9.48386 17.4676 10.5388 18.5225C11.5936 19.5774 12.1863 21.0082 12.1863 22.5H0.936279Z" stroke="#4070C5" stroke-width="1.875" stroke-linecap="round" stroke-linejoin="round"/>
</g>
<defs>
<clipPath id="clip0">
<rect width="30" height="30" fill="white"/>
</clipPath>
</defs>
</svg>
