<svg width="27" height="32" viewBox="0 0 27 32" fill="none" xmlns="http://www.w3.org/2000/svg">
<path d="M19 32H7.5C3.3645 32 0 28.6355 0 24.5V7.5C0 3.3645 3.3645 0 7.5 0H19C23.1355 0 26.5 3.3645 26.5 7.5V24.5C26.5 28.6355 23.1355 32 19 32ZM7.5 2.5C4.743 2.5 2.5 4.743 2.5 7.5V24.5C2.5 27.257 4.743 29.5 7.5 29.5H19C21.757 29.5 24 27.257 24 24.5V7.5C24 4.743 21.757 2.5 19 2.5H7.5ZM21.4375 11.5C21.4375 10.8096 20.8779 10.25 20.1875 10.25H18.0625C17.0286 10.25 16.1875 9.40887 16.1875 8.375V6.25C16.1875 5.55963 15.6279 5 14.9375 5C14.2471 5 13.6875 5.55963 13.6875 6.25V8.375C13.6875 10.7874 15.6501 12.75 18.0625 12.75H20.1875C20.8779 12.75 21.4375 12.1904 21.4375 11.5ZM8.23956 17.4375C8.23956 18.3004 8.93912 19 9.80206 19C10.665 19 11.3646 18.3004 11.3646 17.4375C11.3646 16.5746 10.665 15.875 9.80206 15.875C8.93912 15.875 8.23956 16.5746 8.23956 17.4375ZM15.0521 24.5C15.0521 25.3629 15.7516 26.0625 16.6146 26.0625C17.4775 26.0625 18.1771 25.3629 18.1771 24.5C18.1771 23.6371 17.4775 22.9375 16.6146 22.9375C15.7516 22.9375 15.0521 23.6371 15.0521 24.5ZM10.4541 25.6779L17.8291 17.9904C18.307 17.4922 18.2906 16.7009 17.7924 16.223C17.2943 15.7451 16.5029 15.7616 16.0251 16.2597L8.65006 23.9472C8.17219 24.4454 8.18856 25.2366 8.68675 25.7146C8.92906 25.9471 9.24069 26.0625 9.55194 26.0625C9.8805 26.0625 10.2087 25.9337 10.4541 25.6779Z" fill="#4070C5"/>
</svg>
