<svg width="26" height="32" viewBox="0 0 26 32" fill="none" xmlns="http://www.w3.org/2000/svg">
<path d="M16.5087 27.6229C15.8518 27.411 15.1473 27.7717 14.9353 28.4287L14.5898 29.5H11.3477L11.0021 28.4287C10.7902 27.7717 10.0859 27.411 9.42877 27.6229C8.77177 27.8348 8.41096 28.5392 8.62289 29.1962L9.24789 31.1337C9.41446 31.65 9.89502 32 10.4375 32H15.5C16.0425 32 16.5231 31.65 16.6896 31.1337L17.3146 29.1962C17.5265 28.5392 17.1657 27.8348 16.5087 27.6229Z" fill="#4070C5"/>
<path d="M12.9999 0.000117737C13.0088 -6.97632e-05 12.991 -6.97632e-05 12.9999 0.000117737V0.000117737Z" fill="#4070C5"/>
<path d="M21.5254 3.19474C19.2988 1.15324 16.2368 0.0205444 13 0.000106812C9.76316 0.0205444 6.70115 1.15324 4.47458 3.19474C2.15332 5.32307 0.874939 8.27251 0.874939 11.4999C0.874939 14.8488 2.30369 18.341 5.0067 21.5989C7.00771 24.0106 8.99866 25.4543 9.08241 25.5146C9.29503 25.6676 9.55047 25.75 9.81247 25.75H16.125C16.3854 25.75 16.6393 25.6686 16.8512 25.5174C16.9356 25.4571 18.942 24.014 20.9589 21.6027C23.6844 18.3441 25.1251 14.8507 25.1251 11.4999C25.125 8.27251 23.8467 5.32307 21.5254 3.19474ZM15.7029 23.2499H10.2375C8.86728 22.1591 3.37495 17.4162 3.37495 11.4999C3.37495 6.37876 7.51053 2.51449 13 2.49987C18.4894 2.51449 22.625 6.37876 22.625 11.4999C22.625 17.4199 17.0763 22.1662 15.7029 23.2499Z" fill="#4070C5"/>
<path d="M12.8749 8.93737C12.8803 8.9373 12.8694 8.9373 12.8749 8.93737V8.93737Z" fill="#4070C5"/>
<path d="M16.6999 10.1768C16.2839 9.88925 14.7605 8.94956 12.8749 8.93806C10.7761 8.95088 9.12092 10.1141 8.94161 10.2474C8.38761 10.6593 8.27236 11.4424 8.68423 11.9964C8.92954 12.3264 9.30648 12.5007 9.68836 12.5007C9.94761 12.5007 10.2092 12.4203 10.4332 12.2538C10.4404 12.2484 10.9237 11.9007 11.6249 11.6611V18.3131C11.6249 19.0035 12.1845 19.5631 12.8749 19.5631C13.5652 19.5631 14.1249 19.0035 14.1249 18.3131V11.6656C14.8223 11.9063 15.3055 12.2524 15.3129 12.2578L15.3074 12.2538L15.3115 12.2483C15.5207 12.406 15.7802 12.5007 16.0624 12.5007C16.7527 12.5007 17.3124 11.9411 17.3124 11.2507C17.3124 10.7934 17.0662 10.3947 16.6999 10.1768Z" fill="#4070C5"/>
</svg>
