<?xml version="1.0" encoding="utf-8"?>
<!-- Generator: Adobe Illustrator 24.2.0, SVG Export Plug-In . SVG Version: 6.00 Build 0)  -->
<svg version="1.1" id="Ebene_1" xmlns="http://www.w3.org/2000/svg" xmlns:xlink="http://www.w3.org/1999/xlink" x="0px" y="0px"
	 viewBox="0 0 26 32" style="enable-background:new 0 0 26 32;" xml:space="preserve">
<style type="text/css">
	.st0{fill:#4070C5;}
</style>
<path class="st0" d="M16.5,27.6c-0.7-0.2-1.4,0.1-1.6,0.8l-0.3,1.1h-3.2L11,28.4c-0.2-0.7-0.9-1-1.6-0.8c-0.7,0.2-1,0.9-0.8,1.6
	l0.6,1.9c0.2,0.5,0.6,0.9,1.2,0.9h5.1c0.5,0,1-0.3,1.2-0.9l0.6-1.9C17.5,28.5,17.2,27.8,16.5,27.6z"/>
<path class="st0" d="M13,0C13,0,13,0,13,0L13,0z"/>
<path class="st0" d="M21.5,3.2C19.3,1.2,16.2,0,13,0C9.8,0,6.7,1.2,4.5,3.2c-2.3,2.1-3.6,5.1-3.6,8.3c0,3.3,1.4,6.8,4.1,10.1
	c2,2.4,4,3.9,4.1,3.9c0.2,0.2,0.5,0.2,0.7,0.2h6.3c0.3,0,0.5-0.1,0.7-0.2c0.1-0.1,2.1-1.5,4.1-3.9c2.7-3.3,4.2-6.8,4.2-10.1
	C25.1,8.3,23.8,5.3,21.5,3.2z M15.7,23.2h-5.5c-1.4-1.1-6.9-5.8-6.9-11.8c0-5.1,4.1-9,9.6-9c5.5,0,9.6,3.9,9.6,9
	C22.6,17.4,17.1,22.2,15.7,23.2z"/>
<path class="st0" d="M12.9,8.9C12.9,8.9,12.9,8.9,12.9,8.9L12.9,8.9z"/>
<path class="st0" d="M16.7,10.2c-0.4-0.3-1.9-1.2-3.8-1.2c-2.1,0-3.8,1.2-3.9,1.3c-0.6,0.4-0.7,1.2-0.3,1.7c0.2,0.3,0.6,0.5,1,0.5
	c0.3,0,0.5-0.1,0.7-0.2c0,0,0.5-0.4,1.2-0.6v6.7c0,0.7,0.6,1.2,1.2,1.2c0.7,0,1.2-0.6,1.2-1.2v-6.6c0.7,0.2,1.2,0.6,1.2,0.6l0,0l0,0
	c0.2,0.2,0.5,0.3,0.8,0.3c0.7,0,1.2-0.6,1.2-1.2C17.3,10.8,17.1,10.4,16.7,10.2z"/>
</svg>
