<svg width="28" height="32" viewBox="0 0 28 32" fill="none" xmlns="http://www.w3.org/2000/svg">
<path d="M24.5799 1.76994C22.9034 0.34967 20.7032 -0.258605 18.5436 0.101427C15.5163 0.605846 12.4649 0.615213 9.47416 0.128843C7.29205 -0.225755 5.07679 0.390701 3.39572 1.82059C1.72091 3.2451 0.760345 5.32348 0.760345 7.52264V13.8489C0.760345 16.4041 1.25615 18.8968 2.23407 21.2576C3.21193 23.6184 4.62389 25.7316 6.43073 27.5385L8.70089 29.8086C10.1619 31.2696 12.0809 32 14.0001 32C15.9192 32 17.8383 31.2696 19.2992 29.8086L21.5693 27.5385C23.3762 25.7316 24.7882 23.6184 25.7661 21.2576C26.7439 18.8969 27.2397 16.4042 27.2397 13.8489V7.50752C27.2397 5.29313 26.2702 3.20182 24.5799 1.76994ZM24.7416 13.8489C24.7416 18.3529 22.9877 22.5873 19.8029 25.7721L17.5328 28.0422C15.5848 29.9901 12.4152 29.9902 10.4673 28.0422L8.1971 25.7721C5.01234 22.5873 3.25839 18.3528 3.25839 13.8489V7.52264C3.25839 6.05728 3.89839 4.67248 5.01421 3.72341C5.92812 2.94608 7.07903 2.52897 8.26217 2.52897C8.53159 2.52897 8.80287 2.55064 9.07323 2.59461C12.3332 3.12457 15.6576 3.11483 18.9541 2.56544C20.3881 2.32669 21.8501 2.73119 22.9652 3.67595C24.0941 4.63227 24.7415 6.02886 24.7415 7.50752V13.8489H24.7416ZM17.9969 17.4107C17.9969 18.3611 17.6118 19.2555 16.9127 19.9293C16.4728 20.3532 15.945 20.6536 15.3739 20.8142V21.5117C15.3739 22.2016 14.8147 22.7607 14.1249 22.7607C13.4351 22.7607 12.8759 22.2016 12.8759 21.5117V20.7762C12.2062 20.6461 11.4517 20.4411 10.7284 20.1536C10.0873 19.8988 9.77424 19.1725 10.029 18.5315C10.2838 17.8904 11.01 17.5775 11.6511 17.8322C12.7864 18.2835 13.9371 18.4516 14.3956 18.4516C14.9833 18.4516 15.4989 17.9652 15.4989 17.4107C15.4989 16.8465 14.8713 16.3699 14.1285 16.3699C11.8123 16.3699 10.0656 14.8485 10.0656 12.831C10.0656 11.1264 11.2736 9.69956 12.8759 9.36595V8.52186C12.8759 7.83202 13.4351 7.27283 14.125 7.27283C14.8148 7.27283 15.374 7.83202 15.374 8.52186V9.48429C15.8491 9.5884 16.3898 9.74659 17.0098 9.98771C17.6526 10.2377 17.9712 10.9616 17.7212 11.6045C17.4712 12.2474 16.7472 12.5659 16.1044 12.3159C14.9131 11.8526 14.1669 11.7902 13.5941 11.7902C13.026 11.7902 12.5637 12.2571 12.5637 12.8311C12.5637 13.4341 13.2218 13.8719 14.1285 13.8719C16.2615 13.8719 17.9969 15.4594 17.9969 17.4107Z" fill="#33D67B"/>
</svg>
