<?xml version="1.0" encoding="utf-8"?>
<!-- Generator: Adobe Illustrator 24.2.0, SVG Export Plug-In . SVG Version: 6.00 Build 0)  -->
<svg version="1.1" id="Ebene_1" xmlns="http://www.w3.org/2000/svg" xmlns:xlink="http://www.w3.org/1999/xlink" x="0px" y="0px"
	 viewBox="0 0 28 32" style="enable-background:new 0 0 28 32;" xml:space="preserve">
<style type="text/css">
	.st0{fill:#4070C5;}
</style>
<path class="st0" d="M24.6,1.8c-1.7-1.4-3.9-2-6-1.7c-3,0.5-6.1,0.5-9.1,0C7.3-0.2,5.1,0.4,3.4,1.8C1.7,3.2,0.8,5.3,0.8,7.5v6.3
	c0,2.6,0.5,5,1.5,7.4c1,2.4,2.4,4.5,4.2,6.3l2.3,2.3c1.5,1.5,3.4,2.2,5.3,2.2c1.9,0,3.8-0.7,5.3-2.2l2.3-2.3
	c1.8-1.8,3.2-3.9,4.2-6.3c1-2.4,1.5-4.9,1.5-7.4V7.5C27.2,5.3,26.3,3.2,24.6,1.8z M24.7,13.8c0,4.5-1.8,8.7-4.9,11.9L17.5,28
	c-1.9,1.9-5.1,1.9-7.1,0l-2.3-2.3C5,22.6,3.3,18.4,3.3,13.8V7.5c0-1.5,0.6-2.9,1.8-3.8c0.9-0.8,2.1-1.2,3.2-1.2c0.3,0,0.5,0,0.8,0.1
	c3.3,0.5,6.6,0.5,9.9,0c1.4-0.2,2.9,0.2,4,1.1c1.1,1,1.8,2.4,1.8,3.8L24.7,13.8L24.7,13.8z M18,17.4c0,1-0.4,1.8-1.1,2.5
	c-0.4,0.4-1,0.7-1.5,0.9v0.7c0,0.7-0.6,1.2-1.2,1.2s-1.2-0.6-1.2-1.2v-0.7c-0.7-0.1-1.4-0.3-2.1-0.6c-0.6-0.3-1-1-0.7-1.6
	c0.3-0.6,1-1,1.6-0.7c1.1,0.5,2.3,0.6,2.7,0.6c0.6,0,1.1-0.5,1.1-1c0-0.6-0.6-1-1.4-1c-2.3,0-4.1-1.5-4.1-3.5c0-1.7,1.2-3.1,2.8-3.5
	V8.5c0-0.7,0.6-1.2,1.2-1.2c0.7,0,1.2,0.6,1.2,1.2v1c0.5,0.1,1,0.3,1.6,0.5c0.6,0.2,1,1,0.7,1.6c-0.2,0.6-1,1-1.6,0.7
	c-1.2-0.5-1.9-0.5-2.5-0.5c-0.6,0-1,0.5-1,1c0,0.6,0.7,1,1.6,1C16.3,13.9,18,15.5,18,17.4z"/>
</svg>
