<svg width="32" height="32" viewBox="0 0 32 32" fill="none" xmlns="http://www.w3.org/2000/svg">
<path d="M24.5 26.125H7.49869C3.36394 26.125 0 22.7611 0 18.6263V8.375C0 4.2395 3.3645 0.875 7.5 0.875H19.875C20.5654 0.875 21.125 1.43463 21.125 2.125C21.125 2.81537 20.5654 3.375 19.875 3.375H7.5C4.743 3.375 2.5 5.618 2.5 8.375V18.6263C2.5 21.3826 4.74244 23.625 7.49869 23.625H24.5C27.257 23.625 29.5 21.382 29.5 18.625V13C29.5 12.3096 30.0596 11.75 30.75 11.75C31.4404 11.75 32 12.3096 32 13V18.625C32 22.7605 28.6355 26.125 24.5 26.125ZM23.25 29.875C23.25 29.1846 22.6904 28.625 22 28.625H10C9.30962 28.625 8.75 29.1846 8.75 29.875C8.75 30.5654 9.30962 31.125 10 31.125H22C22.6904 31.125 23.25 30.5654 23.25 29.875ZM32 8V4.69856C32 2.59019 30.2848 0.875 28.1765 0.875H24.875C24.1846 0.875 23.625 1.43463 23.625 2.125C23.625 2.81537 24.1846 3.375 24.875 3.375H28.1765C28.9062 3.375 29.5 3.96875 29.5 4.69856V8C29.5 8.69037 30.0596 9.25 30.75 9.25C31.4404 9.25 32 8.69037 32 8ZM27.6534 7.23769C28.1302 6.73844 28.1119 5.94719 27.6127 5.47044C27.1134 4.99369 26.3222 5.01188 25.8454 5.51113C22.8117 8.68794 18.7825 10.4375 14.5 10.4375H13.7612C13.0708 10.4375 12.5112 10.9971 12.5112 11.6875C12.5112 12.3779 13.0708 12.9375 13.7612 12.9375H14.5C19.4721 12.9375 24.1434 10.9132 27.6534 7.23769Z" fill="#4070C5"/>
</svg>
