<?xml version="1.0" encoding="utf-8"?>
<!-- Generator: Adobe Illustrator 24.2.0, SVG Export Plug-In . SVG Version: 6.00 Build 0)  -->
<svg version="1.1" id="Ebene_1" xmlns="http://www.w3.org/2000/svg" xmlns:xlink="http://www.w3.org/1999/xlink" x="0px" y="0px"
	 viewBox="0 0 32 32" style="enable-background:new 0 0 32 32;" xml:space="preserve">
<style type="text/css">
	.st0{fill:#4070C5;}
</style>
<path class="st0" d="M16.2,8.7c-0.3,0-1.2-0.1-2.1-0.5C13.4,8,12.7,8.3,12.5,9c-0.3,0.6,0.1,1.4,0.7,1.6c0.6,0.2,1.1,0.4,1.6,0.5
	v0.2c0,0.7,0.6,1.2,1.2,1.2c0.7,0,1.2-0.6,1.2-1.2V11c1.2-0.4,2-1.6,2-2.9C19.3,6.4,17.9,5,16,5c-0.6,0-1.1-0.3-1.1-0.6
	c0-0.3,0.3-0.6,0.6-0.6c0.4,0,1,0.1,1.9,0.4c0.6,0.2,1.4-0.1,1.6-0.7c0.2-0.6-0.1-1.4-0.7-1.6c-0.4-0.2-0.8-0.3-1.1-0.4V1.2
	c0-0.7-0.6-1.2-1.2-1.2c-0.7,0-1.2,0.6-1.2,1.2v0.1c-1.4,0.3-2.4,1.6-2.4,3c0,1.8,1.5,3.1,3.6,3.1c0.5,0,0.8,0.3,0.8,0.6
	C16.8,8.4,16.6,8.7,16.2,8.7z"/>
<path class="st0" d="M31.3,2.8c-0.4-1.8-2.2-3-4-2.7l0,0c-1.7,0.3-2.9,1.9-2.8,3.7c0,0.3,0,0.6,0.1,0.9c0.2,1.8,0.4,4.7-0.2,7.7
	c-0.1-0.1-0.1-0.1-0.2-0.2c-0.7-0.6-1.7-0.9-2.8-0.8c-1.1,0.1-2.1,0.7-2.7,1.7c-0.3,0.5-0.5,0.9-0.5,1.4c-0.5,2.6-2.2,4.9-3.4,6.5
	c-1,1.3-1.9,2.5-2.4,4.2c-0.2,0.9-0.3,1.8-0.3,2.9c0,0.4-0.1,0.7-0.4,0.9c-0.3,0.3-0.6,0.4-1,0.4c-0.6,0-1.1-0.4-1.3-1
	c-0.6-2-1.7-3.8-3-5.8c-1.2-1.9-2.4-3.8-3-5.7C2,11.7,2.5,6.6,3.2,3.2c0.1-0.5,0.6-0.8,1.1-0.7l0,0C4.8,2.6,5,3.2,5,3.6
	c0,0.3,0,0.6-0.1,0.9C3.7,15,7.9,19.8,7.9,19.9c0.2,0.4,0.6,0.6,1.1,0.6c0.2,0,0.5-0.1,0.7-0.2c0.6-0.4,0.8-1.1,0.4-1.7
	c-1-1.6-1.1-2.8-1.1-3.3c0-0.5,0.2-0.9,0.5-1.2c0.2-0.2,0.5-0.3,0.9-0.2c0.5,0,0.7,0.3,0.9,0.6c0.1,0.1,0.2,0.4,0.2,0.7
	c0,0.1,0,0.2,0.1,0.2c0.2,0.8,0.5,1.6,0.8,2.4c0.3,0.6,1,0.9,1.6,0.7c0.6-0.3,0.9-1,0.7-1.6c-0.5-1.5-0.8-2.2-0.8-2.3
	c-0.1-0.4-0.2-0.9-0.5-1.4c-0.6-1-1.6-1.6-2.7-1.7c-1-0.1-2,0.2-2.7,0.8c-0.1,0.1-0.1,0.1-0.2,0.2C7,9.4,7.3,6.6,7.4,4.7
	c0-0.3,0.1-0.7,0.1-0.9c0.1-1.8-1-3.4-2.8-3.7l0,0c-1.8-0.3-3.6,0.9-4,2.7C0,6.4-0.5,12,1.2,17.6c0.7,2.3,2,4.3,3.3,6.3
	c1.2,1.8,2.2,3.5,2.7,5.2c0.5,1.6,2,2.8,3.7,2.8c1,0,2-0.4,2.7-1.1c0.7-0.7,1.1-1.7,1.1-2.7c0-0.8,0.1-1.5,0.2-2.2
	c0.4-1.2,1.1-2.3,2-3.4c3.2-3.9,3.7-7.3,3.8-7.3c0.1-0.3,0.1-0.5,0.2-0.7c0.1-0.2,0.4-0.5,0.9-0.6c0.4,0,0.7,0,0.9,0.2
	c0.3,0.2,0.5,0.7,0.5,1.2c0,0.5-0.1,1.6-1.1,3.3c-0.4,0.6-0.2,1.4,0.4,1.7c0.6,0.4,1.4,0.2,1.7-0.4c0-0.1,3.9-4.7,3-15.4
	C27,4.2,27,3.9,27,3.6c0-0.5,0.2-1,0.7-1.1l0,0c0.5-0.1,1,0.2,1.1,0.7c0.7,3.4,1.1,8.5-0.4,13.7c-0.6,1.9-1.8,3.9-3,5.8
	c-1.7,2.7-3.3,5.3-3.3,8.1c0,0.7,0.6,1.2,1.2,1.2c0.7,0,1.2-0.6,1.2-1.2c0-2.1,1.4-4.3,2.9-6.8c1.3-2,2.6-4.1,3.3-6.4
	C32.5,12,32,6.4,31.3,2.8z"/>
<path class="st0" d="M12.5,25.2C12.5,25.2,12.5,25.2,12.5,25.2L12.5,25.2z"/>
</svg>
