<svg width="32" height="32" viewBox="0 0 32 32" fill="none" xmlns="http://www.w3.org/2000/svg">
<path d="M16.2122 8.72704C15.9516 8.72704 15.0616 8.64208 14.0857 8.25422C13.446 8.00002 12.721 8.31244 12.4666 8.95226C12.2123 9.59214 12.5249 10.317 13.1647 10.5713C13.7352 10.7981 14.3014 10.9549 14.8096 11.058V11.2205C14.8096 11.909 15.3678 12.4672 16.0563 12.4672C16.7449 12.4672 17.303 11.909 17.303 11.2205V11.023C18.4852 10.5798 19.329 9.43861 19.329 8.10368C19.329 6.3559 17.8641 4.98688 15.994 4.98688C15.3899 4.98688 14.9343 4.7189 14.9343 4.36352C14.9343 4.0198 15.2139 3.74016 15.5576 3.74016C16.0005 3.74016 16.5391 3.79028 17.4745 4.15407C18.1162 4.40354 18.8388 4.08575 19.0883 3.444C19.3379 2.80225 19.02 2.07972 18.3783 1.83019C17.9788 1.67484 17.6234 1.56058 17.303 1.47612V1.24672C17.303 0.558157 16.7449 0 16.0563 0C15.3678 0 14.8096 0.558157 14.8096 1.24672V1.3381C13.4512 1.6741 12.4408 2.9028 12.4408 4.36352C12.4408 6.14041 13.9684 7.48032 15.994 7.48032C16.4659 7.48032 16.8355 7.75416 16.8355 8.10368C16.8355 8.4474 16.5559 8.72704 16.2122 8.72704Z" fill="#33D67B"/>
<path d="M31.2914 2.75252C30.9275 0.922895 29.1388 -0.285489 27.3031 0.0593537L27.2801 0.0636549C25.5499 0.38855 24.3855 1.95836 24.5114 3.79621C24.531 4.08053 24.5586 4.402 24.5881 4.74241C24.7468 6.58276 24.9895 9.39929 24.4304 12.443C24.368 12.3809 24.3042 12.3202 24.2372 12.2628C23.4917 11.6236 22.5149 11.3265 21.4872 11.4266C20.3652 11.5358 19.3669 12.1564 18.7484 13.1292C18.4529 13.5939 18.2935 14.0713 18.2038 14.5047C17.6579 17.1423 16.0505 19.3938 14.8477 21.0266C13.8958 22.3187 12.9969 23.5391 12.4945 25.1959C12.2562 26.066 12.1768 27.0292 12.1917 28.0713C12.1967 28.4247 12.0604 28.7604 11.8078 29.0166C11.5497 29.2784 11.2069 29.4225 10.8425 29.4225C10.2545 29.4225 9.73108 29.0279 9.56975 28.4628C9.0068 26.4907 7.82472 24.6214 6.57326 22.6423C5.39224 20.7744 4.17089 18.843 3.58344 16.9052C2.01264 11.724 2.48321 6.61293 3.15451 3.23762C3.25281 2.7428 3.73803 2.41591 4.23429 2.50935L4.25985 2.51421C4.81426 2.61831 5.03269 3.16344 5.00109 3.62579C4.98313 3.88803 4.96774 4.1855 4.9279 4.52773C3.71379 14.9607 7.85857 19.8492 7.907 19.9261C8.144 20.3025 8.54906 20.5087 8.96316 20.5087C9.19025 20.5087 9.41996 20.4467 9.62629 20.3168C10.209 19.95 10.3839 19.1802 10.0171 18.5975C8.97837 16.9478 8.87215 15.8321 8.90133 15.3138C8.92956 14.8107 9.10174 14.3995 9.38599 14.1557C9.61775 13.957 9.91553 13.8736 10.2714 13.9084C10.7303 13.9531 11.0011 14.2369 11.1475 14.467C11.2414 14.6147 11.3143 14.8812 11.3914 15.1633C11.412 15.2387 11.4328 15.3144 11.4544 15.3903C11.6743 16.1633 11.9633 16.9802 12.29 17.7526C12.5583 18.3868 13.2897 18.6835 13.9239 18.4153C14.5581 18.147 14.8199 17.4292 14.5866 16.7814C14.0491 15.2891 13.8149 14.5726 13.7965 14.5054C13.6797 14.0783 13.5472 13.5942 13.2517 13.1292C12.6331 12.1564 11.6348 11.5357 10.5128 11.4266C9.48448 11.3265 8.5083 11.6236 7.76288 12.2628C7.69593 12.3202 7.6321 12.3808 7.56964 12.4429C7.01055 9.3991 7.25322 6.58251 7.41206 4.74216C7.44148 4.40187 7.46916 4.0804 7.48867 3.79615C7.61452 1.95823 6.45009 0.388426 4.72151 0.0639042L4.69576 0.0591043C2.86115 -0.285178 1.07255 0.922584 0.708816 2.75134C-0.018022 6.40597 -0.52338 11.9538 1.19716 17.6288C1.88267 19.8901 3.19584 21.9667 4.46574 23.975C5.61859 25.7982 6.70753 27.5203 7.17206 29.1475C7.6374 30.7776 9.14674 31.9161 10.8424 31.9161C11.8796 31.9161 12.8531 31.5081 13.5833 30.7673C14.3083 30.032 14.6994 29.0619 14.6848 28.0359C14.6731 27.2218 14.7389 26.5368 14.8914 25.8842C15.2725 24.6539 15.9569 23.6192 16.8552 22.5056C20.0362 18.5618 20.5881 15.2384 20.6088 15.1628C20.6859 14.8809 20.7587 14.6146 20.8525 14.4671C20.9989 14.2369 21.2697 13.9531 21.7286 13.9085C22.0845 13.8739 22.3823 13.9571 22.614 14.1558C22.8983 14.3996 23.0704 14.8109 23.0987 15.3139C23.1278 15.8322 23.0216 16.9479 21.9829 18.5977C21.6161 19.1803 21.791 19.9501 22.3737 20.3169C22.9563 20.6837 23.7261 20.5089 24.093 19.9262C24.1414 19.8493 28.0248 15.2724 27.0722 4.52816C27.0418 4.18488 27.017 3.88828 26.999 3.62597C26.9674 3.16356 27.1858 2.6185 27.7412 2.51421L27.7642 2.50991C28.2622 2.41634 28.7473 2.74348 28.8458 3.23893C29.517 6.61399 29.9874 11.7246 28.4166 16.9055C27.8299 18.8408 26.6114 20.7857 25.4329 22.6666C23.7204 25.3998 22.1029 27.9814 22.1029 30.7534C22.1029 31.442 22.6611 32.0002 23.3496 32.0002C24.0382 32.0002 24.5963 31.442 24.5963 30.7534C24.5963 28.698 26.029 26.4114 27.5458 23.9904C28.8112 21.9709 30.1196 19.8827 30.8028 17.629C32.5232 11.9542 32.0181 6.40685 31.2914 2.75252Z" fill="#33D67B"/>
<path d="M12.4944 25.196C12.5002 25.1719 12.4872 25.2199 12.4944 25.196V25.196Z" fill="#33D67B"/>
</svg>
