<?xml version="1.0" encoding="utf-8"?>
<!-- Generator: Adobe Illustrator 24.2.0, SVG Export Plug-In . SVG Version: 6.00 Build 0)  -->
<svg version="1.1" id="Ebene_1" xmlns="http://www.w3.org/2000/svg" xmlns:xlink="http://www.w3.org/1999/xlink" x="0px" y="0px"
	 viewBox="0 0 32 32" style="enable-background:new 0 0 32 32;" xml:space="preserve">
<style type="text/css">
	.st0{fill:#4070C5;}
</style>
<path class="st0" d="M4.5,23C2,23,0,25,0,27.5S2,32,4.5,32S9,30,9,27.5S7,23,4.5,23z M4.5,29.5c-1.1,0-2-0.9-2-2s0.9-2,2-2
	s2,0.9,2,2S5.6,29.5,4.5,29.5z"/>
<path class="st0" d="M16.2,8.7c-0.3,0-1.2-0.1-2.1-0.5C13.4,8,12.7,8.3,12.5,9c-0.3,0.6,0.1,1.4,0.7,1.6c0.6,0.2,1.1,0.4,1.6,0.5
	v0.2c0,0.7,0.6,1.2,1.2,1.2c0.7,0,1.2-0.6,1.2-1.2v-0.2c1.2-0.4,2.1-1.6,2.1-2.9c0-0.9-0.4-1.7-1-2.3C17.7,5.3,16.9,5,16,5
	c-0.6,0-1.1-0.3-1.1-0.6c0-0.3,0.3-0.6,0.6-0.6c0.4,0,1,0.1,1.9,0.4c0.6,0.3,1.4-0.1,1.6-0.7c0.3-0.6-0.1-1.4-0.7-1.6
	c-0.4-0.2-0.8-0.3-1.1-0.4V1.2c0-0.7-0.6-1.2-1.2-1.2c-0.7,0-1.2,0.6-1.2,1.2v0.1c-1.4,0.3-2.4,1.6-2.4,3c0,1.8,1.5,3.1,3.6,3.1
	c0.5,0,0.9,0.3,0.9,0.6S16.6,8.7,16.2,8.7z"/>
<path class="st0" d="M16.1,14.4c-0.7,0-1.2,0.6-1.2,1.2v3.8c0,0.7,0.6,1.2,1.2,1.2c0.7,0,1.2-0.6,1.2-1.2v-3.8
	C17.3,14.9,16.8,14.4,16.1,14.4z"/>
<path class="st0" d="M16.1,23c-2.5,0-4.5,2-4.5,4.5s2,4.5,4.5,4.5s4.5-2,4.5-4.5S18.5,23,16.1,23z M16.1,29.5c-1.1,0-2-0.9-2-2
	s0.9-2,2-2s2,0.9,2,2S17.2,29.5,16.1,29.5z"/>
<path class="st0" d="M27.5,23C25,23,23,25,23,27.5s2,4.5,4.5,4.5s4.5-2,4.5-4.5S30,23,27.5,23z M27.5,29.5c-1.1,0-2-0.9-2-2
	s0.9-2,2-2s2,0.9,2,2S28.6,29.5,27.5,29.5z"/>
<path class="st0" d="M9,6.6C7.3,6.9,5.9,7.8,4.8,9.2c-1.1,1.3-1.7,3-1.7,4.7v5.7c0,0.7,0.6,1.2,1.2,1.2s1.2-0.6,1.2-1.2v-5.7
	c0-2.3,1.6-4.4,3.9-4.9c0.7-0.2,1.1-0.8,0.9-1.5C10.3,6.8,9.6,6.4,9,6.6z"/>
<path class="st0" d="M26.3,13.9v5.7c0,0.7,0.6,1.2,1.2,1.2s1.2-0.6,1.2-1.2v-5.7c0-1.7-0.6-3.4-1.7-4.7c-1.1-1.3-2.5-2.2-4.2-2.6
	c-0.7-0.2-1.3,0.3-1.5,0.9c-0.2,0.7,0.3,1.3,0.9,1.5C24.7,9.5,26.3,11.6,26.3,13.9z"/>
</svg>
