<svg width="163" height="86" viewBox="0 0 163 86" fill="none" xmlns="http://www.w3.org/2000/svg">
<path d="M12 1H151C157.075 1 162 5.92487 162 12V74C162 80.0751 157.075 85 151 85H12C5.92486 85 1 80.0751 1 74V12C1 5.92487 5.92487 1 12 1Z" fill="#33D67B" fill-opacity="0.2" stroke="#33D67B" stroke-width="2"/>
<path d="M72.3484 40.1899C72.5732 40.4381 72.8475 40.6365 73.1537 40.7723C73.4598 40.908 73.791 40.9782 74.1259 40.9782C74.4607 40.9782 74.7919 40.908 75.098 40.7723C75.4042 40.6365 75.6785 40.4381 75.9033 40.1899L77.0528 38.9066C77.3842 38.5401 77.8209 38.2851 78.303 38.1766C78.785 38.0681 79.2889 38.1114 79.7454 38.3006C80.2018 38.4898 80.5886 38.8155 80.8526 39.2332C81.1166 39.6509 81.2449 40.1401 81.2199 40.6336L81.1338 42.3459C81.1149 42.6809 81.167 43.0161 81.2867 43.3296C81.4063 43.6431 81.5908 43.9278 81.8281 44.1651C82.0653 44.4024 82.35 44.5869 82.6635 44.7065C82.977 44.8262 83.3123 44.8783 83.6473 44.8594L85.3596 44.7732C85.8534 44.7476 86.343 44.8755 86.7611 45.1395C87.1792 45.4035 87.5052 45.7905 87.6943 46.2474C87.8835 46.7042 87.9264 47.2084 87.8173 47.6907C87.7081 48.1729 87.4522 48.6095 87.0848 48.9404L85.8124 50.0899C85.5637 50.3144 85.3649 50.5886 85.2288 50.8948C85.0927 51.2009 85.0224 51.5323 85.0224 51.8673C85.0224 52.2024 85.0927 52.5337 85.2288 52.8399C85.3649 53.146 85.5637 53.4202 85.8124 53.6447L87.0848 54.7942C87.4522 55.1251 87.7081 55.5617 87.8173 56.0439C87.9264 56.5262 87.8835 57.0304 87.6943 57.4873C87.5052 57.9441 87.1792 58.3311 86.7611 58.5951C86.343 58.8591 85.8534 58.9871 85.3596 58.9614L83.6473 58.8752C83.3126 58.8578 82.978 58.9109 82.6652 59.0311C82.3524 59.1512 82.0683 59.3358 81.8313 59.5727C81.5943 59.8097 81.4098 60.0938 81.2896 60.4066C81.1695 60.7195 81.1164 61.0541 81.1338 61.3887L81.2199 63.1011C81.2449 63.5946 81.1166 64.0837 80.8526 64.5014C80.5886 64.9191 80.2018 65.2449 79.7454 65.434C79.2889 65.6232 78.785 65.6665 78.303 65.558C77.8209 65.4495 77.3842 65.1946 77.0528 64.8281L75.9033 63.5447C75.6785 63.2965 75.4042 63.0981 75.098 62.9624C74.7919 62.8266 74.4607 62.7564 74.1259 62.7564C73.791 62.7564 73.4598 62.8266 73.1537 62.9624C72.8475 63.0981 72.5732 63.2965 72.3484 63.5447L71.1989 64.8281C70.8675 65.1946 70.4308 65.4495 69.9487 65.558C69.4667 65.6665 68.9628 65.6232 68.5064 65.434C68.0499 65.2449 67.6631 64.9191 67.3991 64.5014C67.1351 64.0837 67.0068 63.5946 67.0318 63.1011L67.1179 61.3887C67.1348 61.0542 67.0813 60.7199 66.9609 60.4073C66.8405 60.0947 66.656 59.8109 66.4191 59.574C66.1823 59.3372 65.8984 59.1526 65.5859 59.0323C65.2733 58.9119 64.939 58.8584 64.6044 58.8752L62.8921 58.9614C62.3986 58.9864 61.9095 58.8581 61.4918 58.5941C61.0741 58.3301 60.7483 57.9433 60.5591 57.4868C60.37 57.0303 60.3266 56.5265 60.4351 56.0444C60.5436 55.5624 60.7986 55.1257 61.1651 54.7942L62.4393 53.6447C62.6875 53.4199 62.8859 53.1456 63.0216 52.8395C63.1574 52.5334 63.2276 52.2022 63.2276 51.8673C63.2276 51.5324 63.1574 51.2013 63.0216 50.8951C62.8859 50.589 62.6875 50.3147 62.4393 50.0899L61.1651 48.9404C60.7986 48.609 60.5436 48.1723 60.4351 47.6902C60.3266 47.2081 60.37 46.7043 60.5591 46.2478C60.7483 45.7913 61.0741 45.4046 61.4918 45.1406C61.9095 44.8766 62.3986 44.7482 62.8921 44.7732L64.6044 44.8594C64.9391 44.8768 65.2737 44.8237 65.5865 44.7035C65.8994 44.5834 66.1835 44.3988 66.4204 44.1619C66.6574 43.9249 66.8419 43.6408 66.9621 43.328C67.0822 43.0151 67.1353 42.6806 67.1179 42.3459L67.0318 40.6336C67.0068 40.1401 67.1351 39.6509 67.3991 39.2332C67.6631 38.8155 68.0499 38.4898 68.5064 38.3006C68.9628 38.1114 69.4667 38.0681 69.9487 38.1766C70.4308 38.2851 70.8675 38.5401 71.1989 38.9066L72.3484 40.1899Z" stroke="#33D67B" stroke-opacity="0.8" stroke-width="2.75" stroke-linecap="round" stroke-linejoin="round"/>
<path d="M74.125 55.3135C76.0235 55.3135 77.5625 53.7745 77.5625 51.876C77.5625 49.9775 76.0235 48.4385 74.125 48.4385C72.2265 48.4385 70.6875 49.9775 70.6875 51.876C70.6875 53.7745 72.2265 55.3135 74.125 55.3135Z" stroke="#33D67B" stroke-opacity="0.8" stroke-width="2.75" stroke-linecap="round" stroke-linejoin="round"/>
<path d="M93.1692 32.167C93.0332 32.167 92.9003 32.2073 92.7872 32.2829C92.6742 32.3584 92.5861 32.4658 92.534 32.5914C92.482 32.717 92.4684 32.8553 92.4949 32.9886C92.5214 33.122 92.5869 33.2445 92.6831 33.3406C92.7792 33.4368 92.9017 33.5023 93.0351 33.5288C93.1684 33.5553 93.3067 33.5417 93.4323 33.4897C93.5579 33.4376 93.6653 33.3495 93.7408 33.2364C93.8164 33.1234 93.8567 32.9905 93.8567 32.8545C93.8567 32.6722 93.7843 32.4973 93.6553 32.3684C93.5264 32.2394 93.3515 32.167 93.1692 32.167Z" stroke="#33D67B" stroke-opacity="0.8" stroke-width="2.75" stroke-linecap="round" stroke-linejoin="round"/>
<path d="M97.8559 26.3883C98.1047 26.2914 98.3762 26.2691 98.6375 26.324C98.8987 26.3789 99.1383 26.5086 99.327 26.6973C99.5158 26.8861 99.6455 27.1257 99.7004 27.3869C99.7553 27.6482 99.7329 27.9197 99.6361 28.1685L98.7194 30.5261C98.6134 30.7983 98.5969 31.0973 98.6724 31.3795C98.7479 31.6618 98.9114 31.9126 99.1393 32.0955L101.11 33.6795C101.318 33.8465 101.473 34.0704 101.556 34.3239C101.639 34.5774 101.646 34.8495 101.577 35.1072C101.508 35.3649 101.366 35.5969 101.167 35.775C100.969 35.9532 100.723 36.0697 100.459 36.1105L97.9604 36.4973C97.6717 36.5414 97.4045 36.6765 97.1978 36.8829C96.9911 37.0893 96.8555 37.3563 96.8109 37.645L96.4241 40.1456C96.3833 40.4092 96.2668 40.6553 96.0887 40.8538C95.9105 41.0524 95.6785 41.1948 95.4208 41.2638C95.1632 41.3328 94.891 41.3253 94.6375 41.2423C94.384 41.1594 94.1601 41.0044 93.9931 40.7965L92.4091 38.8256C92.2261 38.5979 91.9754 38.4344 91.6933 38.3586C91.4112 38.2828 91.1122 38.2987 90.8398 38.404L88.4821 39.3206C88.2333 39.4175 87.9618 39.4398 87.7006 39.3849C87.4393 39.3301 87.1997 39.2003 87.011 39.0116C86.8222 38.8228 86.6925 38.5832 86.6376 38.322C86.5827 38.0608 86.6051 37.7892 86.7019 37.5405L87.6186 35.1828C87.7247 34.9106 87.7411 34.6116 87.6656 34.3294C87.5901 34.0471 87.4266 33.7964 87.1988 33.6135L85.2279 32.0276C85.0203 31.8607 84.8658 31.6371 84.783 31.3839C84.7003 31.1308 84.693 30.859 84.7619 30.6018C84.8309 30.3445 84.9732 30.1129 85.1715 29.935C85.3698 29.7572 85.6155 29.6409 85.8788 29.6003L88.3776 29.2135C88.6664 29.1687 88.9334 29.0331 89.1401 28.8265C89.3468 28.6198 89.4823 28.3528 89.5271 28.064L89.9139 25.567C89.9542 25.3033 90.0705 25.0571 90.2484 24.8584C90.4264 24.6597 90.6583 24.5172 90.9159 24.4481C91.1736 24.3791 91.4457 24.3866 91.6992 24.4697C91.9526 24.5528 92.1764 24.7079 92.3431 24.9161L93.9289 26.887C94.112 27.1145 94.3628 27.2779 94.645 27.3534C94.9271 27.4289 95.226 27.4126 95.4983 27.3068L97.8559 26.3883Z" stroke="#33D67B" stroke-opacity="0.8" stroke-width="2.75" stroke-linecap="round" stroke-linejoin="round"/>
</svg>
