<svg width="163" height="120" viewBox="0 0 163 120" fill="none" xmlns="http://www.w3.org/2000/svg">
<path d="M12 1H151C157.075 1 162 5.92487 162 12V108C162 114.075 157.075 119 151 119H12C5.92486 119 1 114.075 1 108V12C1 5.92487 5.92487 1 12 1Z" fill="#4070C5" fill-opacity="0.2" stroke="#4070C5" stroke-width="2"/>
<path d="M103.825 88.127H102.21V74.564H103.825C104.341 74.564 104.793 74.1119 104.793 73.5952C104.793 73.0786 104.341 72.6265 103.825 72.6265H57.9688C57.4521 72.6265 57 73.0786 57 73.5952C57 74.1119 57.4521 74.564 57.9688 74.564H59.5834V88.0624H57.9688C57.4521 88.0624 57 88.5145 57 89.0312C57 89.5479 57.4521 90 57.9688 90H103.825C104.341 90 104.793 89.5479 104.793 89.0312C104.793 88.5145 104.341 88.127 103.825 88.127ZM100.272 88.127H95.4284V74.564H100.272V88.127ZM75.084 74.564H79.9279V88.0624H75.084V74.564ZM73.1464 88.127H68.3025V74.564H73.1464V88.127ZM81.8654 74.564H86.7094V88.0624H81.8654V74.564ZM88.6469 74.564H93.4908V88.0624H88.6469V74.564ZM61.521 74.564H66.3649V88.0624H61.521V74.564Z" fill="#4070C5"/>
<path d="M62.1021 67.9117C61.5854 67.9117 61.1333 68.3638 61.1333 68.8805C61.1333 69.3972 61.5854 69.8493 62.1021 69.8493H99.6909C100.208 69.8493 100.66 69.3972 100.66 68.8805C100.66 68.3638 100.208 67.9117 99.6909 67.9117H97.6887V64.1011H99.6909C100.208 64.1011 100.66 63.649 100.66 63.1324C100.66 62.6157 100.208 62.1636 99.6909 62.1636H62.1021C61.5854 62.1636 61.1333 62.6157 61.1333 63.1324C61.1333 63.649 61.5854 64.1011 62.1021 64.1011H64.1042V67.9117H62.1021ZM79.9277 67.9117H73.9858V64.1011H79.9277V67.9117ZM81.8653 64.1011H87.8071V67.9117H81.8653V64.1011ZM95.7512 67.9117H89.8093V64.1011H95.7512V67.9117ZM66.0418 64.1011H71.9837V67.9117H66.0418V64.1011Z" fill="#4070C5"/>
<path d="M62.1022 59.3864H99.691C100.208 59.3864 100.66 58.9343 100.66 58.4177C100.66 57.901 100.208 57.4489 99.691 57.4489H98.3993C97.8826 48.6006 90.7782 41.4316 81.93 40.9795V38.4607H89.2281C89.7448 38.4607 90.1969 38.0086 90.1969 37.4919V32.5834C90.1969 32.0667 89.7448 31.6146 89.2281 31.6146H81.8654V30.9688C81.8654 30.4521 81.4133 30 80.8966 30C80.3799 30 79.9278 30.4521 79.9278 30.9688V32.5188V37.4273V40.915C71.0796 41.4316 63.9106 48.5361 63.4585 57.4489H62.1668C61.6501 57.4489 61.198 57.901 61.198 58.4177C61.198 58.9343 61.5855 59.3864 62.1022 59.3864ZM88.1948 33.5522V36.5231H81.8654V33.5522H88.1948ZM80.8966 42.8525C89.1636 42.8525 95.945 49.3111 96.3971 57.4489H65.3961C65.8482 49.3111 72.6296 42.8525 80.8966 42.8525Z" fill="#4070C5"/>
</svg>
