<svg width="452" height="302" viewBox="0 0 452 302" fill="none" xmlns="http://www.w3.org/2000/svg">
<rect x="1" y="107" width="88" height="88" rx="11" fill="#33D67B" fill-opacity="0.2" stroke="#33D67B" stroke-width="2"/>
<rect x="1" y="1" width="88" height="88" rx="11" fill="#33D67B" fill-opacity="0.2" stroke="#33D67B" stroke-width="2"/>
<rect x="1" y="213" width="88" height="88" rx="11" fill="#33D67B" fill-opacity="0.2" stroke="#33D67B" stroke-width="2"/>
<rect x="363" y="107" width="88" height="88" rx="11" fill="#33D67B" fill-opacity="0.2" stroke="#33D67B" stroke-width="2"/>
<rect x="363" y="1" width="88" height="88" rx="11" fill="#33D67B" fill-opacity="0.2" stroke="#33D67B" stroke-width="2"/>
<rect x="363" y="213" width="88" height="88" rx="11" fill="#33D67B" fill-opacity="0.2" stroke="#33D67B" stroke-width="2"/>
<rect x="107" y="1" width="238" height="300" rx="11" fill="#4070C5" fill-opacity="0.3" stroke="#4070C5" stroke-width="2"/>
<g clip-path="url(#clip0)">
<path d="M277.375 164.378C276.557 156.432 270.344 149.946 262.168 148.649C261.187 148.486 260.043 148.324 258.898 148.324C258.408 148.324 257.917 148.324 257.427 148.324H257.1L256.936 148C254.32 141.514 247.78 137.297 240.585 137.297C239.931 137.297 239.441 137.297 238.787 137.459H238.46L238.296 137.135C234.536 129.189 226.36 124 217.367 124C205.268 124 195.13 133.081 194.149 144.757V145.243H193.659C189.08 145.73 184.993 147.676 181.722 150.919C177.798 154.811 175.836 159.838 176 165.189C176.327 175.568 185.483 184 196.438 184H206.412V177.838H196.438C188.917 177.838 182.704 172 182.376 165.027C182.213 161.459 183.685 158.054 186.301 155.459C188.917 152.865 192.35 151.405 196.111 151.405C196.438 151.405 196.765 151.405 197.092 151.405L200.853 151.73L200.526 148C200.526 147.514 200.526 147.027 200.526 146.541C200.526 137.459 208.047 130.162 217.367 130.162C224.725 130.162 231.429 134.865 233.554 141.838L234.536 144.757L237.642 143.784C238.623 143.459 239.768 143.297 240.912 143.297C246.308 143.297 251.05 147.027 251.867 152.378L252.521 155.784L255.955 154.811C257.1 154.486 258.081 154.324 259.225 154.324C259.879 154.324 260.697 154.324 261.351 154.486C266.583 155.297 270.671 159.676 271.161 164.703C271.488 168.108 270.344 171.189 268.055 173.784C265.766 176.216 262.495 177.676 259.062 177.676H247.126V184H259.062C264.294 184 269.199 181.892 272.796 178.162C276.23 174.432 277.865 169.405 277.375 164.378Z" fill="#4070C5"/>
<path d="M220.31 147.027H213.934V184H239.768V177.838H220.31V147.027Z" fill="#4070C5"/>
</g>
<path d="M402.281 39.3759C402.404 39.5113 402.553 39.6195 402.72 39.6935C402.887 39.7676 403.068 39.8059 403.251 39.8059C403.433 39.8059 403.614 39.7676 403.781 39.6935C403.948 39.6195 404.097 39.5113 404.22 39.3759L404.847 38.6759C405.028 38.476 405.266 38.3369 405.529 38.2777C405.792 38.2185 406.067 38.2422 406.316 38.3454C406.565 38.4485 406.776 38.6262 406.92 38.8541C407.064 39.0819 407.134 39.3487 407.12 39.6179L407.073 40.5519C407.063 40.7346 407.091 40.9175 407.156 41.0885C407.222 41.2595 407.322 41.4148 407.452 41.5442C407.581 41.6736 407.736 41.7742 407.907 41.8395C408.078 41.9048 408.261 41.9332 408.444 41.9229L409.378 41.8759C409.647 41.8619 409.914 41.9317 410.142 42.0757C410.371 42.2197 410.548 42.4308 410.652 42.68C410.755 42.9291 410.778 43.2042 410.719 43.4672C410.659 43.7303 410.519 43.9684 410.319 44.1489L409.625 44.7759C409.489 44.8983 409.381 45.0479 409.307 45.2149C409.232 45.3819 409.194 45.5626 409.194 45.7454C409.194 45.9281 409.232 46.1089 409.307 46.2759C409.381 46.4429 409.489 46.5924 409.625 46.7149L410.319 47.3419C410.519 47.5224 410.659 47.7605 410.719 48.0235C410.778 48.2866 410.755 48.5616 410.652 48.8108C410.548 49.06 410.371 49.2711 410.142 49.4151C409.914 49.5591 409.647 49.6289 409.378 49.6149L408.444 49.5679C408.261 49.5584 408.079 49.5874 407.908 49.6529C407.738 49.7184 407.583 49.8191 407.453 49.9484C407.324 50.0776 407.224 50.2326 407.158 50.4032C407.092 50.5738 407.064 50.7563 407.073 50.9389L407.12 51.8729C407.134 52.1421 407.064 52.4089 406.92 52.6367C406.776 52.8645 406.565 53.0422 406.316 53.1454C406.067 53.2486 405.792 53.2722 405.529 53.2131C405.266 53.1539 405.028 53.0148 404.847 52.8149L404.22 52.1149C404.097 51.9795 403.948 51.8713 403.781 51.7972C403.614 51.7232 403.433 51.6849 403.251 51.6849C403.068 51.6849 402.887 51.7232 402.72 51.7972C402.553 51.8713 402.404 51.9795 402.281 52.1149L401.654 52.8149C401.473 53.0148 401.235 53.1539 400.972 53.2131C400.709 53.2722 400.434 53.2486 400.185 53.1454C399.936 53.0422 399.725 52.8645 399.581 52.6367C399.437 52.4089 399.367 52.1421 399.381 51.8729L399.428 50.9389C399.437 50.7564 399.408 50.5741 399.342 50.4036C399.277 50.2331 399.176 50.0782 399.047 49.949C398.918 49.8199 398.763 49.7192 398.592 49.6535C398.422 49.5879 398.239 49.5587 398.057 49.5679L397.123 49.6149C396.854 49.6285 396.587 49.5585 396.359 49.4145C396.131 49.2705 395.954 49.0596 395.85 48.8106C395.747 48.5616 395.724 48.2868 395.783 48.0238C395.842 47.7609 395.981 47.5227 396.181 47.3419L396.876 46.7149C397.011 46.5923 397.12 46.4426 397.194 46.2757C397.268 46.1087 397.306 45.9281 397.306 45.7454C397.306 45.5627 397.268 45.3821 397.194 45.2151C397.12 45.0481 397.011 44.8985 396.876 44.7759L396.181 44.1489C395.981 43.9681 395.842 43.7299 395.783 43.467C395.724 43.204 395.747 42.9292 395.85 42.6802C395.954 42.4312 396.131 42.2203 396.359 42.0762C396.587 41.9322 396.854 41.8623 397.123 41.8759L398.057 41.9229C398.24 41.9324 398.422 41.9034 398.593 41.8379C398.763 41.7723 398.918 41.6717 399.048 41.5424C399.177 41.4132 399.277 41.2582 399.343 41.0876C399.409 40.9169 399.438 40.7344 399.428 40.5519L399.381 39.6179C399.367 39.3487 399.437 39.0819 399.581 38.8541C399.725 38.6262 399.936 38.4485 400.185 38.3454C400.434 38.2422 400.709 38.2185 400.972 38.2777C401.235 38.3369 401.473 38.476 401.654 38.6759L402.281 39.3759Z" stroke="#33D67B" stroke-opacity="0.8" stroke-width="1.5" stroke-linecap="round" stroke-linejoin="round"/>
<path d="M403.25 47.626C404.286 47.626 405.125 46.7865 405.125 45.751C405.125 44.7154 404.286 43.876 403.25 43.876C402.214 43.876 401.375 44.7154 401.375 45.751C401.375 46.7865 402.214 47.626 403.25 47.626Z" stroke="#33D67B" stroke-opacity="0.8" stroke-width="1.5" stroke-linecap="round" stroke-linejoin="round"/>
<path d="M413.638 35C413.564 35 413.491 35.022 413.43 35.0632C413.368 35.1044 413.32 35.163 413.291 35.2315C413.263 35.3 413.256 35.3754 413.27 35.4482C413.285 35.5209 413.32 35.5877 413.373 35.6402C413.425 35.6926 413.492 35.7283 413.565 35.7428C413.638 35.7573 413.713 35.7498 413.781 35.7215C413.85 35.6931 413.909 35.645 413.95 35.5833C413.991 35.5217 414.013 35.4492 414.013 35.375C414.013 35.2755 413.973 35.1802 413.903 35.1098C413.833 35.0395 413.737 35 413.638 35Z" stroke="#33D67B" stroke-opacity="0.8" stroke-width="1.5" stroke-linecap="round" stroke-linejoin="round"/>
<path d="M416.194 31.8479C416.33 31.7951 416.478 31.7829 416.62 31.8129C416.763 31.8428 416.894 31.9136 416.997 32.0165C417.099 32.1195 417.17 32.2502 417.2 32.3926C417.23 32.5351 417.218 32.6833 417.165 32.8189L416.665 34.1049C416.607 34.2534 416.598 34.4165 416.639 34.5704C416.681 34.7244 416.77 34.8612 416.894 34.9609L417.969 35.8249C418.083 35.916 418.167 36.0382 418.212 36.1764C418.258 36.3147 418.262 36.4632 418.224 36.6037C418.186 36.7442 418.109 36.8708 418 36.968C417.892 37.0651 417.758 37.1287 417.614 37.1509L416.251 37.3619C416.094 37.386 415.948 37.4597 415.835 37.5723C415.722 37.6849 415.648 37.8305 415.624 37.9879L415.413 39.3519C415.391 39.4957 415.327 39.6299 415.23 39.7382C415.133 39.8465 415.006 39.9242 414.866 39.9618C414.725 39.9995 414.577 39.9954 414.439 39.9501C414.3 39.9049 414.178 39.8204 414.087 39.7069L413.223 38.6319C413.123 38.5077 412.987 38.4185 412.833 38.3772C412.679 38.3358 412.516 38.3445 412.367 38.4019L411.081 38.9019C410.945 38.9548 410.797 38.9669 410.655 38.937C410.512 38.9071 410.382 38.8363 410.279 38.7334C410.176 38.6304 410.105 38.4997 410.075 38.3572C410.045 38.2147 410.057 38.0666 410.11 37.9309L410.61 36.6449C410.668 36.4965 410.677 36.3334 410.636 36.1794C410.595 36.0255 410.505 35.8887 410.381 35.7889L409.306 34.9239C409.193 34.8329 409.109 34.7109 409.063 34.5728C409.018 34.4347 409.014 34.2865 409.052 34.1462C409.09 34.0059 409.167 33.8795 409.275 33.7825C409.383 33.6855 409.518 33.6221 409.661 33.5999L411.024 33.3889C411.182 33.3645 411.327 33.2906 411.44 33.1778C411.553 33.0651 411.627 32.9195 411.651 32.7619L411.862 31.3999C411.884 31.2561 411.947 31.1218 412.045 31.0135C412.142 30.9051 412.268 30.8273 412.409 30.7897C412.549 30.752 412.698 30.7561 412.836 30.8014C412.974 30.8468 413.096 30.9314 413.187 31.0449L414.052 32.1199C414.152 32.2441 414.289 32.3332 414.443 32.3744C414.597 32.4155 414.76 32.4066 414.908 32.3489L416.194 31.8479Z" stroke="#33D67B" stroke-opacity="0.8" stroke-width="1.5" stroke-linecap="round" stroke-linejoin="round"/>
<path d="M402.281 148.376C402.404 148.511 402.553 148.619 402.72 148.694C402.887 148.768 403.068 148.806 403.251 148.806C403.433 148.806 403.614 148.768 403.781 148.694C403.948 148.619 404.097 148.511 404.22 148.376L404.847 147.676C405.028 147.476 405.266 147.337 405.529 147.278C405.792 147.219 406.067 147.242 406.316 147.345C406.565 147.449 406.776 147.626 406.92 147.854C407.064 148.082 407.134 148.349 407.12 148.618L407.073 149.552C407.063 149.735 407.091 149.917 407.156 150.088C407.222 150.259 407.322 150.415 407.452 150.544C407.581 150.674 407.736 150.774 407.907 150.839C408.078 150.905 408.261 150.933 408.444 150.923L409.378 150.876C409.647 150.862 409.914 150.932 410.142 151.076C410.371 151.22 410.548 151.431 410.652 151.68C410.755 151.929 410.778 152.204 410.719 152.467C410.659 152.73 410.519 152.968 410.319 153.149L409.625 153.776C409.489 153.898 409.381 154.048 409.307 154.215C409.232 154.382 409.194 154.563 409.194 154.745C409.194 154.928 409.232 155.109 409.307 155.276C409.381 155.443 409.489 155.592 409.625 155.715L410.319 156.342C410.519 156.522 410.659 156.76 410.719 157.024C410.778 157.287 410.755 157.562 410.652 157.811C410.548 158.06 410.371 158.271 410.142 158.415C409.914 158.559 409.647 158.629 409.378 158.615L408.444 158.568C408.261 158.558 408.079 158.587 407.908 158.653C407.738 158.718 407.583 158.819 407.453 158.948C407.324 159.078 407.224 159.233 407.158 159.403C407.092 159.574 407.064 159.756 407.073 159.939L407.12 160.873C407.134 161.142 407.064 161.409 406.92 161.637C406.776 161.865 406.565 162.042 406.316 162.145C406.067 162.249 405.792 162.272 405.529 162.213C405.266 162.154 405.028 162.015 404.847 161.815L404.22 161.115C404.097 160.979 403.948 160.871 403.781 160.797C403.614 160.723 403.433 160.685 403.251 160.685C403.068 160.685 402.887 160.723 402.72 160.797C402.553 160.871 402.404 160.979 402.281 161.115L401.654 161.815C401.473 162.015 401.235 162.154 400.972 162.213C400.709 162.272 400.434 162.249 400.185 162.145C399.936 162.042 399.725 161.865 399.581 161.637C399.437 161.409 399.367 161.142 399.381 160.873L399.428 159.939C399.437 159.756 399.408 159.574 399.342 159.404C399.277 159.233 399.176 159.078 399.047 158.949C398.918 158.82 398.763 158.719 398.592 158.654C398.422 158.588 398.239 158.559 398.057 158.568L397.123 158.615C396.854 158.629 396.587 158.559 396.359 158.415C396.131 158.271 395.954 158.06 395.85 157.811C395.747 157.562 395.724 157.287 395.783 157.024C395.842 156.761 395.981 156.523 396.181 156.342L396.876 155.715C397.011 155.592 397.12 155.443 397.194 155.276C397.268 155.109 397.306 154.928 397.306 154.745C397.306 154.563 397.268 154.382 397.194 154.215C397.12 154.048 397.011 153.899 396.876 153.776L396.181 153.149C395.981 152.968 395.842 152.73 395.783 152.467C395.724 152.204 395.747 151.929 395.85 151.68C395.954 151.431 396.131 151.22 396.359 151.076C396.587 150.932 396.854 150.862 397.123 150.876L398.057 150.923C398.24 150.932 398.422 150.903 398.593 150.838C398.763 150.772 398.918 150.672 399.048 150.542C399.177 150.413 399.277 150.258 399.343 150.088C399.409 149.917 399.438 149.734 399.428 149.552L399.381 148.618C399.367 148.349 399.437 148.082 399.581 147.854C399.725 147.626 399.936 147.449 400.185 147.345C400.434 147.242 400.709 147.219 400.972 147.278C401.235 147.337 401.473 147.476 401.654 147.676L402.281 148.376Z" stroke="#33D67B" stroke-opacity="0.8" stroke-width="1.5" stroke-linecap="round" stroke-linejoin="round"/>
<path d="M403.25 156.626C404.286 156.626 405.125 155.787 405.125 154.751C405.125 153.715 404.286 152.876 403.25 152.876C402.214 152.876 401.375 153.715 401.375 154.751C401.375 155.787 402.214 156.626 403.25 156.626Z" stroke="#33D67B" stroke-opacity="0.8" stroke-width="1.5" stroke-linecap="round" stroke-linejoin="round"/>
<path d="M413.638 144C413.564 144 413.491 144.022 413.43 144.063C413.368 144.104 413.32 144.163 413.291 144.231C413.263 144.3 413.256 144.375 413.27 144.448C413.285 144.521 413.32 144.588 413.373 144.64C413.425 144.693 413.492 144.728 413.565 144.743C413.638 144.757 413.713 144.75 413.781 144.721C413.85 144.693 413.909 144.645 413.95 144.583C413.991 144.522 414.013 144.449 414.013 144.375C414.013 144.276 413.973 144.18 413.903 144.11C413.833 144.04 413.737 144 413.638 144Z" stroke="#33D67B" stroke-opacity="0.8" stroke-width="1.5" stroke-linecap="round" stroke-linejoin="round"/>
<path d="M416.194 140.848C416.33 140.795 416.478 140.783 416.62 140.813C416.763 140.843 416.894 140.914 416.997 141.017C417.099 141.119 417.17 141.25 417.2 141.393C417.23 141.535 417.218 141.683 417.165 141.819L416.665 143.105C416.607 143.253 416.598 143.416 416.639 143.57C416.681 143.724 416.77 143.861 416.894 143.961L417.969 144.825C418.083 144.916 418.167 145.038 418.212 145.176C418.258 145.315 418.262 145.463 418.224 145.604C418.186 145.744 418.109 145.871 418 145.968C417.892 146.065 417.758 146.129 417.614 146.151L416.251 146.362C416.094 146.386 415.948 146.46 415.835 146.572C415.722 146.685 415.648 146.83 415.624 146.988L415.413 148.352C415.391 148.496 415.327 148.63 415.23 148.738C415.133 148.847 415.006 148.924 414.866 148.962C414.725 148.999 414.577 148.995 414.439 148.95C414.3 148.905 414.178 148.82 414.087 148.707L413.223 147.632C413.123 147.508 412.987 147.419 412.833 147.377C412.679 147.336 412.516 147.345 412.367 147.402L411.081 147.902C410.945 147.955 410.797 147.967 410.655 147.937C410.512 147.907 410.382 147.836 410.279 147.733C410.176 147.63 410.105 147.5 410.075 147.357C410.045 147.215 410.057 147.067 410.11 146.931L410.61 145.645C410.668 145.496 410.677 145.333 410.636 145.179C410.595 145.025 410.505 144.889 410.381 144.789L409.306 143.924C409.193 143.833 409.109 143.711 409.063 143.573C409.018 143.435 409.014 143.287 409.052 143.146C409.09 143.006 409.167 142.88 409.275 142.783C409.383 142.686 409.518 142.622 409.661 142.6L411.024 142.389C411.182 142.364 411.327 142.291 411.44 142.178C411.553 142.065 411.627 141.919 411.651 141.762L411.862 140.4C411.884 140.256 411.947 140.122 412.045 140.013C412.142 139.905 412.268 139.827 412.409 139.79C412.549 139.752 412.698 139.756 412.836 139.801C412.974 139.847 413.096 139.931 413.187 140.045L414.052 141.12C414.152 141.244 414.289 141.333 414.443 141.374C414.597 141.416 414.76 141.407 414.908 141.349L416.194 140.848Z" stroke="#33D67B" stroke-opacity="0.8" stroke-width="1.5" stroke-linecap="round" stroke-linejoin="round"/>
<path d="M404.281 253.376C404.404 253.511 404.553 253.619 404.72 253.694C404.887 253.768 405.068 253.806 405.251 253.806C405.433 253.806 405.614 253.768 405.781 253.694C405.948 253.619 406.097 253.511 406.22 253.376L406.847 252.676C407.028 252.476 407.266 252.337 407.529 252.278C407.792 252.219 408.067 252.242 408.316 252.345C408.565 252.449 408.776 252.626 408.92 252.854C409.064 253.082 409.134 253.349 409.12 253.618L409.073 254.552C409.063 254.735 409.091 254.917 409.156 255.088C409.222 255.259 409.322 255.415 409.452 255.544C409.581 255.674 409.736 255.774 409.907 255.839C410.078 255.905 410.261 255.933 410.444 255.923L411.378 255.876C411.647 255.862 411.914 255.932 412.142 256.076C412.371 256.22 412.548 256.431 412.652 256.68C412.755 256.929 412.778 257.204 412.719 257.467C412.659 257.73 412.519 257.968 412.319 258.149L411.625 258.776C411.489 258.898 411.381 259.048 411.307 259.215C411.232 259.382 411.194 259.563 411.194 259.745C411.194 259.928 411.232 260.109 411.307 260.276C411.381 260.443 411.489 260.592 411.625 260.715L412.319 261.342C412.519 261.522 412.659 261.76 412.719 262.024C412.778 262.287 412.755 262.562 412.652 262.811C412.548 263.06 412.371 263.271 412.142 263.415C411.914 263.559 411.647 263.629 411.378 263.615L410.444 263.568C410.261 263.558 410.079 263.587 409.908 263.653C409.738 263.718 409.583 263.819 409.453 263.948C409.324 264.078 409.224 264.233 409.158 264.403C409.092 264.574 409.064 264.756 409.073 264.939L409.12 265.873C409.134 266.142 409.064 266.409 408.92 266.637C408.776 266.865 408.565 267.042 408.316 267.145C408.067 267.249 407.792 267.272 407.529 267.213C407.266 267.154 407.028 267.015 406.847 266.815L406.22 266.115C406.097 265.979 405.948 265.871 405.781 265.797C405.614 265.723 405.433 265.685 405.251 265.685C405.068 265.685 404.887 265.723 404.72 265.797C404.553 265.871 404.404 265.979 404.281 266.115L403.654 266.815C403.473 267.015 403.235 267.154 402.972 267.213C402.709 267.272 402.434 267.249 402.185 267.145C401.936 267.042 401.725 266.865 401.581 266.637C401.437 266.409 401.367 266.142 401.381 265.873L401.428 264.939C401.437 264.756 401.408 264.574 401.342 264.404C401.277 264.233 401.176 264.078 401.047 263.949C400.918 263.82 400.763 263.719 400.592 263.654C400.422 263.588 400.239 263.559 400.057 263.568L399.123 263.615C398.854 263.629 398.587 263.559 398.359 263.415C398.131 263.271 397.954 263.06 397.85 262.811C397.747 262.562 397.724 262.287 397.783 262.024C397.842 261.761 397.981 261.523 398.181 261.342L398.876 260.715C399.011 260.592 399.12 260.443 399.194 260.276C399.268 260.109 399.306 259.928 399.306 259.745C399.306 259.563 399.268 259.382 399.194 259.215C399.12 259.048 399.011 258.899 398.876 258.776L398.181 258.149C397.981 257.968 397.842 257.73 397.783 257.467C397.724 257.204 397.747 256.929 397.85 256.68C397.954 256.431 398.131 256.22 398.359 256.076C398.587 255.932 398.854 255.862 399.123 255.876L400.057 255.923C400.24 255.932 400.422 255.903 400.593 255.838C400.763 255.772 400.918 255.672 401.048 255.542C401.177 255.413 401.277 255.258 401.343 255.088C401.409 254.917 401.438 254.734 401.428 254.552L401.381 253.618C401.367 253.349 401.437 253.082 401.581 252.854C401.725 252.626 401.936 252.449 402.185 252.345C402.434 252.242 402.709 252.219 402.972 252.278C403.235 252.337 403.473 252.476 403.654 252.676L404.281 253.376Z" stroke="#33D67B" stroke-opacity="0.8" stroke-width="1.5" stroke-linecap="round" stroke-linejoin="round"/>
<path d="M405.25 261.626C406.286 261.626 407.125 260.787 407.125 259.751C407.125 258.715 406.286 257.876 405.25 257.876C404.214 257.876 403.375 258.715 403.375 259.751C403.375 260.787 404.214 261.626 405.25 261.626Z" stroke="#33D67B" stroke-opacity="0.8" stroke-width="1.5" stroke-linecap="round" stroke-linejoin="round"/>
<path d="M415.638 249C415.564 249 415.491 249.022 415.43 249.063C415.368 249.104 415.32 249.163 415.291 249.231C415.263 249.3 415.256 249.375 415.27 249.448C415.285 249.521 415.32 249.588 415.373 249.64C415.425 249.693 415.492 249.728 415.565 249.743C415.638 249.757 415.713 249.75 415.781 249.721C415.85 249.693 415.909 249.645 415.95 249.583C415.991 249.522 416.013 249.449 416.013 249.375C416.013 249.276 415.973 249.18 415.903 249.11C415.833 249.04 415.737 249 415.638 249Z" stroke="#33D67B" stroke-opacity="0.8" stroke-width="1.5" stroke-linecap="round" stroke-linejoin="round"/>
<path d="M418.194 245.848C418.33 245.795 418.478 245.783 418.62 245.813C418.763 245.843 418.894 245.914 418.997 246.017C419.099 246.119 419.17 246.25 419.2 246.393C419.23 246.535 419.218 246.683 419.165 246.819L418.665 248.105C418.607 248.253 418.598 248.416 418.639 248.57C418.681 248.724 418.77 248.861 418.894 248.961L419.969 249.825C420.083 249.916 420.167 250.038 420.212 250.176C420.258 250.315 420.262 250.463 420.224 250.604C420.186 250.744 420.109 250.871 420 250.968C419.892 251.065 419.758 251.129 419.614 251.151L418.251 251.362C418.094 251.386 417.948 251.46 417.835 251.572C417.722 251.685 417.648 251.83 417.624 251.988L417.413 253.352C417.391 253.496 417.327 253.63 417.23 253.738C417.133 253.847 417.006 253.924 416.866 253.962C416.725 253.999 416.577 253.995 416.439 253.95C416.3 253.905 416.178 253.82 416.087 253.707L415.223 252.632C415.123 252.508 414.987 252.419 414.833 252.377C414.679 252.336 414.516 252.345 414.367 252.402L413.081 252.902C412.945 252.955 412.797 252.967 412.655 252.937C412.512 252.907 412.382 252.836 412.279 252.733C412.176 252.63 412.105 252.5 412.075 252.357C412.045 252.215 412.057 252.067 412.11 251.931L412.61 250.645C412.668 250.496 412.677 250.333 412.636 250.179C412.595 250.025 412.505 249.889 412.381 249.789L411.306 248.924C411.193 248.833 411.109 248.711 411.063 248.573C411.018 248.435 411.014 248.287 411.052 248.146C411.09 248.006 411.167 247.88 411.275 247.783C411.383 247.686 411.518 247.622 411.661 247.6L413.024 247.389C413.182 247.364 413.327 247.291 413.44 247.178C413.553 247.065 413.627 246.919 413.651 246.762L413.862 245.4C413.884 245.256 413.947 245.122 414.045 245.013C414.142 244.905 414.268 244.827 414.409 244.79C414.549 244.752 414.698 244.756 414.836 244.801C414.974 244.847 415.096 244.931 415.187 245.045L416.052 246.12C416.152 246.244 416.289 246.333 416.443 246.374C416.597 246.416 416.76 246.407 416.908 246.349L418.194 245.848Z" stroke="#33D67B" stroke-opacity="0.8" stroke-width="1.5" stroke-linecap="round" stroke-linejoin="round"/>
<path d="M40.281 254.376C40.4036 254.511 40.5532 254.619 40.7202 254.694C40.8872 254.768 41.0678 254.806 41.2505 254.806C41.4332 254.806 41.6138 254.768 41.7808 254.694C41.9478 254.619 42.0974 254.511 42.22 254.376L42.847 253.676C43.0278 253.476 43.266 253.337 43.5289 253.278C43.7919 253.219 44.0667 253.242 44.3157 253.345C44.5647 253.449 44.7756 253.626 44.9197 253.854C45.0637 254.082 45.1336 254.349 45.12 254.618L45.073 255.552C45.0627 255.735 45.0911 255.917 45.1564 256.088C45.2217 256.259 45.3223 256.415 45.4517 256.544C45.5811 256.674 45.7364 256.774 45.9074 256.839C46.0784 256.905 46.2613 256.933 46.444 256.923L47.378 256.876C47.6474 256.862 47.9144 256.932 48.1425 257.076C48.3705 257.22 48.5483 257.431 48.6515 257.68C48.7547 257.929 48.7781 258.204 48.7185 258.467C48.659 258.73 48.5194 258.968 48.319 259.149L47.625 259.776C47.4893 259.898 47.3809 260.048 47.3067 260.215C47.2324 260.382 47.1941 260.563 47.1941 260.745C47.1941 260.928 47.2324 261.109 47.3067 261.276C47.3809 261.443 47.4893 261.592 47.625 261.715L48.319 262.342C48.5194 262.522 48.659 262.76 48.7185 263.024C48.7781 263.287 48.7547 263.562 48.6515 263.811C48.5483 264.06 48.3705 264.271 48.1425 264.415C47.9144 264.559 47.6474 264.629 47.378 264.615L46.444 264.568C46.2615 264.558 46.079 264.587 45.9083 264.653C45.7377 264.718 45.5827 264.819 45.4535 264.948C45.3242 265.078 45.2236 265.233 45.158 265.403C45.0925 265.574 45.0635 265.756 45.073 265.939L45.12 266.873C45.1336 267.142 45.0637 267.409 44.9197 267.637C44.7756 267.865 44.5647 268.042 44.3157 268.145C44.0667 268.249 43.7919 268.272 43.5289 268.213C43.266 268.154 43.0278 268.015 42.847 267.815L42.22 267.115C42.0974 266.979 41.9478 266.871 41.7808 266.797C41.6138 266.723 41.4332 266.685 41.2505 266.685C41.0678 266.685 40.8872 266.723 40.7202 266.797C40.5532 266.871 40.4036 266.979 40.281 267.115L39.654 267.815C39.4732 268.015 39.235 268.154 38.9721 268.213C38.7091 268.272 38.4343 268.249 38.1853 268.145C37.9363 268.042 37.7254 267.865 37.5814 267.637C37.4374 267.409 37.3674 267.142 37.381 266.873L37.428 265.939C37.4372 265.756 37.408 265.574 37.3424 265.404C37.2767 265.233 37.176 265.078 37.0469 264.949C36.9177 264.82 36.7628 264.719 36.5923 264.654C36.4218 264.588 36.2395 264.559 36.057 264.568L35.123 264.615C34.8538 264.629 34.587 264.559 34.3592 264.415C34.1314 264.271 33.9537 264.06 33.8505 263.811C33.7473 263.562 33.7237 263.287 33.7828 263.024C33.842 262.761 33.9811 262.523 34.181 262.342L34.876 261.715C35.0114 261.592 35.1196 261.443 35.1937 261.276C35.2677 261.109 35.306 260.928 35.306 260.745C35.306 260.563 35.2677 260.382 35.1937 260.215C35.1196 260.048 35.0114 259.899 34.876 259.776L34.181 259.149C33.9811 258.968 33.842 258.73 33.7828 258.467C33.7237 258.204 33.7473 257.929 33.8505 257.68C33.9537 257.431 34.1314 257.22 34.3592 257.076C34.587 256.932 34.8538 256.862 35.123 256.876L36.057 256.923C36.2396 256.932 36.4221 256.903 36.5927 256.838C36.7633 256.772 36.9183 256.672 37.0475 256.542C37.1768 256.413 37.2775 256.258 37.343 256.088C37.4085 255.917 37.4375 255.734 37.428 255.552L37.381 254.618C37.3674 254.349 37.4374 254.082 37.5814 253.854C37.7254 253.626 37.9363 253.449 38.1853 253.345C38.4343 253.242 38.7091 253.219 38.9721 253.278C39.235 253.337 39.4732 253.476 39.654 253.676L40.281 254.376Z" stroke="#33D67B" stroke-opacity="0.8" stroke-width="1.5" stroke-linecap="round" stroke-linejoin="round"/>
<path d="M41.25 262.626C42.2855 262.626 43.125 261.787 43.125 260.751C43.125 259.715 42.2855 258.876 41.25 258.876C40.2145 258.876 39.375 259.715 39.375 260.751C39.375 261.787 40.2145 262.626 41.25 262.626Z" stroke="#33D67B" stroke-opacity="0.8" stroke-width="1.5" stroke-linecap="round" stroke-linejoin="round"/>
<path d="M51.6379 250C51.5638 250 51.4913 250.022 51.4296 250.063C51.3679 250.104 51.3199 250.163 51.2915 250.231C51.2631 250.3 51.2557 250.375 51.2701 250.448C51.2846 250.521 51.3203 250.588 51.3728 250.64C51.4252 250.693 51.492 250.728 51.5648 250.743C51.6375 250.757 51.7129 250.75 51.7814 250.721C51.85 250.693 51.9085 250.645 51.9497 250.583C51.9909 250.522 52.0129 250.449 52.0129 250.375C52.0129 250.276 51.9734 250.18 51.9031 250.11C51.8328 250.04 51.7374 250 51.6379 250Z" stroke="#33D67B" stroke-opacity="0.8" stroke-width="1.5" stroke-linecap="round" stroke-linejoin="round"/>
<path d="M54.1941 246.848C54.3298 246.795 54.4779 246.783 54.6204 246.813C54.7629 246.843 54.8936 246.914 54.9965 247.017C55.0995 247.119 55.1702 247.25 55.2002 247.393C55.2301 247.535 55.2179 247.683 55.1651 247.819L54.6651 249.105C54.6072 249.253 54.5982 249.416 54.6394 249.57C54.6806 249.724 54.7698 249.861 54.8941 249.961L55.9691 250.825C56.0825 250.916 56.167 251.038 56.2123 251.176C56.2576 251.315 56.2616 251.463 56.224 251.604C56.1864 251.744 56.1087 251.871 56.0004 251.968C55.8921 252.065 55.7579 252.129 55.6141 252.151L54.2511 252.362C54.0936 252.386 53.9479 252.46 53.8351 252.572C53.7223 252.685 53.6484 252.83 53.6241 252.988L53.4131 254.352C53.3909 254.496 53.3273 254.63 53.2301 254.738C53.133 254.847 53.0064 254.924 52.8659 254.962C52.7253 254.999 52.5769 254.995 52.4386 254.95C52.3003 254.905 52.1782 254.82 52.0871 254.707L51.2231 253.632C51.1233 253.508 50.9865 253.419 50.8326 253.377C50.6788 253.336 50.5157 253.345 50.3671 253.402L49.0811 253.902C48.9454 253.955 48.7973 253.967 48.6548 253.937C48.5123 253.907 48.3816 253.836 48.2787 253.733C48.1757 253.63 48.105 253.5 48.075 253.357C48.0451 253.215 48.0573 253.067 48.1101 252.931L48.6101 251.645C48.668 251.496 48.6769 251.333 48.6358 251.179C48.5946 251.025 48.5054 250.889 48.3811 250.789L47.3061 249.924C47.1929 249.833 47.1086 249.711 47.0634 249.573C47.0183 249.435 47.0143 249.287 47.0519 249.146C47.0895 249.006 47.1672 248.88 47.2753 248.783C47.3835 248.686 47.5175 248.622 47.6611 248.6L49.0241 248.389C49.1816 248.364 49.3273 248.291 49.44 248.178C49.5527 248.065 49.6267 247.919 49.6511 247.762L49.8621 246.4C49.8841 246.256 49.9475 246.122 50.0445 246.013C50.1416 245.905 50.2681 245.827 50.4086 245.79C50.5492 245.752 50.6976 245.756 50.8359 245.801C50.9741 245.847 51.0961 245.931 51.1871 246.045L52.0521 247.12C52.152 247.244 52.2888 247.333 52.4427 247.374C52.5966 247.416 52.7596 247.407 52.9081 247.349L54.1941 246.848Z" stroke="#33D67B" stroke-opacity="0.8" stroke-width="1.5" stroke-linecap="round" stroke-linejoin="round"/>
<path d="M42.281 149.376C42.4036 149.511 42.5532 149.619 42.7202 149.694C42.8872 149.768 43.0678 149.806 43.2505 149.806C43.4332 149.806 43.6138 149.768 43.7808 149.694C43.9478 149.619 44.0974 149.511 44.22 149.376L44.847 148.676C45.0278 148.476 45.266 148.337 45.5289 148.278C45.7919 148.219 46.0667 148.242 46.3157 148.345C46.5647 148.449 46.7756 148.626 46.9197 148.854C47.0637 149.082 47.1336 149.349 47.12 149.618L47.073 150.552C47.0627 150.735 47.0911 150.917 47.1564 151.088C47.2217 151.259 47.3223 151.415 47.4517 151.544C47.5811 151.674 47.7364 151.774 47.9074 151.839C48.0784 151.905 48.2613 151.933 48.444 151.923L49.378 151.876C49.6474 151.862 49.9144 151.932 50.1425 152.076C50.3705 152.22 50.5483 152.431 50.6515 152.68C50.7547 152.929 50.7781 153.204 50.7185 153.467C50.659 153.73 50.5194 153.968 50.319 154.149L49.625 154.776C49.4893 154.898 49.3809 155.048 49.3067 155.215C49.2324 155.382 49.1941 155.563 49.1941 155.745C49.1941 155.928 49.2324 156.109 49.3067 156.276C49.3809 156.443 49.4893 156.592 49.625 156.715L50.319 157.342C50.5194 157.522 50.659 157.76 50.7185 158.024C50.7781 158.287 50.7547 158.562 50.6515 158.811C50.5483 159.06 50.3705 159.271 50.1425 159.415C49.9144 159.559 49.6474 159.629 49.378 159.615L48.444 159.568C48.2615 159.558 48.079 159.587 47.9083 159.653C47.7377 159.718 47.5827 159.819 47.4535 159.948C47.3242 160.078 47.2236 160.233 47.158 160.403C47.0925 160.574 47.0635 160.756 47.073 160.939L47.12 161.873C47.1336 162.142 47.0637 162.409 46.9197 162.637C46.7756 162.865 46.5647 163.042 46.3157 163.145C46.0667 163.249 45.7919 163.272 45.5289 163.213C45.266 163.154 45.0278 163.015 44.847 162.815L44.22 162.115C44.0974 161.979 43.9478 161.871 43.7808 161.797C43.6138 161.723 43.4332 161.685 43.2505 161.685C43.0678 161.685 42.8872 161.723 42.7202 161.797C42.5532 161.871 42.4036 161.979 42.281 162.115L41.654 162.815C41.4732 163.015 41.235 163.154 40.9721 163.213C40.7091 163.272 40.4343 163.249 40.1853 163.145C39.9363 163.042 39.7254 162.865 39.5814 162.637C39.4374 162.409 39.3674 162.142 39.381 161.873L39.428 160.939C39.4372 160.756 39.408 160.574 39.3424 160.404C39.2767 160.233 39.176 160.078 39.0469 159.949C38.9177 159.82 38.7628 159.719 38.5923 159.654C38.4218 159.588 38.2395 159.559 38.057 159.568L37.123 159.615C36.8538 159.629 36.587 159.559 36.3592 159.415C36.1314 159.271 35.9537 159.06 35.8505 158.811C35.7473 158.562 35.7237 158.287 35.7828 158.024C35.842 157.761 35.9811 157.523 36.181 157.342L36.876 156.715C37.0114 156.592 37.1196 156.443 37.1937 156.276C37.2677 156.109 37.306 155.928 37.306 155.745C37.306 155.563 37.2677 155.382 37.1937 155.215C37.1196 155.048 37.0114 154.899 36.876 154.776L36.181 154.149C35.9811 153.968 35.842 153.73 35.7828 153.467C35.7237 153.204 35.7473 152.929 35.8505 152.68C35.9537 152.431 36.1314 152.22 36.3592 152.076C36.587 151.932 36.8538 151.862 37.123 151.876L38.057 151.923C38.2396 151.932 38.4221 151.903 38.5927 151.838C38.7633 151.772 38.9183 151.672 39.0475 151.542C39.1768 151.413 39.2775 151.258 39.343 151.088C39.4085 150.917 39.4375 150.734 39.428 150.552L39.381 149.618C39.3674 149.349 39.4374 149.082 39.5814 148.854C39.7254 148.626 39.9363 148.449 40.1853 148.345C40.4343 148.242 40.7091 148.219 40.9721 148.278C41.235 148.337 41.4732 148.476 41.654 148.676L42.281 149.376Z" stroke="#33D67B" stroke-opacity="0.8" stroke-width="1.5" stroke-linecap="round" stroke-linejoin="round"/>
<path d="M43.25 157.626C44.2855 157.626 45.125 156.787 45.125 155.751C45.125 154.715 44.2855 153.876 43.25 153.876C42.2145 153.876 41.375 154.715 41.375 155.751C41.375 156.787 42.2145 157.626 43.25 157.626Z" stroke="#33D67B" stroke-opacity="0.8" stroke-width="1.5" stroke-linecap="round" stroke-linejoin="round"/>
<path d="M53.6379 145C53.5638 145 53.4913 145.022 53.4296 145.063C53.3679 145.104 53.3199 145.163 53.2915 145.231C53.2631 145.3 53.2557 145.375 53.2701 145.448C53.2846 145.521 53.3203 145.588 53.3728 145.64C53.4252 145.693 53.492 145.728 53.5648 145.743C53.6375 145.757 53.7129 145.75 53.7814 145.721C53.85 145.693 53.9085 145.645 53.9497 145.583C53.9909 145.522 54.0129 145.449 54.0129 145.375C54.0129 145.276 53.9734 145.18 53.9031 145.11C53.8328 145.04 53.7374 145 53.6379 145Z" stroke="#33D67B" stroke-opacity="0.8" stroke-width="1.5" stroke-linecap="round" stroke-linejoin="round"/>
<path d="M56.1941 141.848C56.3298 141.795 56.4779 141.783 56.6204 141.813C56.7629 141.843 56.8936 141.914 56.9965 142.017C57.0995 142.119 57.1702 142.25 57.2002 142.393C57.2301 142.535 57.2179 142.683 57.1651 142.819L56.6651 144.105C56.6072 144.253 56.5982 144.416 56.6394 144.57C56.6806 144.724 56.7698 144.861 56.8941 144.961L57.9691 145.825C58.0825 145.916 58.167 146.038 58.2123 146.176C58.2576 146.315 58.2616 146.463 58.224 146.604C58.1864 146.744 58.1087 146.871 58.0004 146.968C57.8921 147.065 57.7579 147.129 57.6141 147.151L56.2511 147.362C56.0936 147.386 55.9479 147.46 55.8351 147.572C55.7223 147.685 55.6484 147.83 55.6241 147.988L55.4131 149.352C55.3909 149.496 55.3273 149.63 55.2301 149.738C55.133 149.847 55.0064 149.924 54.8659 149.962C54.7253 149.999 54.5769 149.995 54.4386 149.95C54.3003 149.905 54.1782 149.82 54.0871 149.707L53.2231 148.632C53.1233 148.508 52.9865 148.419 52.8326 148.377C52.6788 148.336 52.5157 148.345 52.3671 148.402L51.0811 148.902C50.9454 148.955 50.7973 148.967 50.6548 148.937C50.5123 148.907 50.3816 148.836 50.2787 148.733C50.1757 148.63 50.105 148.5 50.075 148.357C50.0451 148.215 50.0573 148.067 50.1101 147.931L50.6101 146.645C50.668 146.496 50.6769 146.333 50.6358 146.179C50.5946 146.025 50.5054 145.889 50.3811 145.789L49.3061 144.924C49.1929 144.833 49.1086 144.711 49.0634 144.573C49.0183 144.435 49.0143 144.287 49.0519 144.146C49.0895 144.006 49.1672 143.88 49.2753 143.783C49.3835 143.686 49.5175 143.622 49.6611 143.6L51.0241 143.389C51.1816 143.364 51.3273 143.291 51.44 143.178C51.5527 143.065 51.6267 142.919 51.6511 142.762L51.8621 141.4C51.8841 141.256 51.9475 141.122 52.0445 141.013C52.1416 140.905 52.2681 140.827 52.4086 140.79C52.5492 140.752 52.6976 140.756 52.8359 140.801C52.9741 140.847 53.0961 140.931 53.1871 141.045L54.0521 142.12C54.152 142.244 54.2888 142.333 54.4427 142.374C54.5966 142.416 54.7596 142.407 54.9081 142.349L56.1941 141.848Z" stroke="#33D67B" stroke-opacity="0.8" stroke-width="1.5" stroke-linecap="round" stroke-linejoin="round"/>
<path d="M40.281 38.3759C40.4036 38.5113 40.5532 38.6195 40.7202 38.6935C40.8872 38.7676 41.0678 38.8059 41.2505 38.8059C41.4332 38.8059 41.6138 38.7676 41.7808 38.6935C41.9478 38.6195 42.0974 38.5113 42.22 38.3759L42.847 37.6759C43.0278 37.476 43.266 37.3369 43.5289 37.2777C43.7919 37.2185 44.0667 37.2422 44.3157 37.3454C44.5647 37.4485 44.7756 37.6262 44.9197 37.8541C45.0637 38.0819 45.1336 38.3487 45.12 38.6179L45.073 39.5519C45.0627 39.7346 45.0911 39.9175 45.1564 40.0885C45.2217 40.2595 45.3223 40.4148 45.4517 40.5442C45.5811 40.6736 45.7364 40.7742 45.9074 40.8395C46.0784 40.9048 46.2613 40.9332 46.444 40.9229L47.378 40.8759C47.6474 40.8619 47.9144 40.9317 48.1425 41.0757C48.3705 41.2197 48.5483 41.4308 48.6515 41.68C48.7547 41.9291 48.7781 42.2042 48.7185 42.4672C48.659 42.7303 48.5194 42.9684 48.319 43.1489L47.625 43.7759C47.4893 43.8983 47.3809 44.0479 47.3067 44.2149C47.2324 44.3819 47.1941 44.5626 47.1941 44.7454C47.1941 44.9281 47.2324 45.1089 47.3067 45.2759C47.3809 45.4429 47.4893 45.5924 47.625 45.7149L48.319 46.3419C48.5194 46.5224 48.659 46.7605 48.7185 47.0235C48.7781 47.2866 48.7547 47.5616 48.6515 47.8108C48.5483 48.06 48.3705 48.2711 48.1425 48.4151C47.9144 48.5591 47.6474 48.6289 47.378 48.6149L46.444 48.5679C46.2615 48.5584 46.079 48.5874 45.9083 48.6529C45.7377 48.7184 45.5827 48.8191 45.4535 48.9484C45.3242 49.0776 45.2236 49.2326 45.158 49.4032C45.0925 49.5738 45.0635 49.7563 45.073 49.9389L45.12 50.8729C45.1336 51.1421 45.0637 51.4089 44.9197 51.6367C44.7756 51.8645 44.5647 52.0422 44.3157 52.1454C44.0667 52.2486 43.7919 52.2722 43.5289 52.2131C43.266 52.1539 43.0278 52.0148 42.847 51.8149L42.22 51.1149C42.0974 50.9795 41.9478 50.8713 41.7808 50.7972C41.6138 50.7232 41.4332 50.6849 41.2505 50.6849C41.0678 50.6849 40.8872 50.7232 40.7202 50.7972C40.5532 50.8713 40.4036 50.9795 40.281 51.1149L39.654 51.8149C39.4732 52.0148 39.235 52.1539 38.9721 52.2131C38.7091 52.2722 38.4343 52.2486 38.1853 52.1454C37.9363 52.0422 37.7254 51.8645 37.5814 51.6367C37.4374 51.4089 37.3674 51.1421 37.381 50.8729L37.428 49.9389C37.4372 49.7564 37.408 49.5741 37.3424 49.4036C37.2767 49.2331 37.176 49.0782 37.0469 48.949C36.9177 48.8199 36.7628 48.7192 36.5923 48.6535C36.4218 48.5879 36.2395 48.5587 36.057 48.5679L35.123 48.6149C34.8538 48.6285 34.587 48.5585 34.3592 48.4145C34.1314 48.2705 33.9537 48.0596 33.8505 47.8106C33.7473 47.5616 33.7237 47.2868 33.7828 47.0238C33.842 46.7609 33.9811 46.5227 34.181 46.3419L34.876 45.7149C35.0114 45.5923 35.1196 45.4426 35.1937 45.2757C35.2677 45.1087 35.306 44.9281 35.306 44.7454C35.306 44.5627 35.2677 44.3821 35.1937 44.2151C35.1196 44.0481 35.0114 43.8985 34.876 43.7759L34.181 43.1489C33.9811 42.9681 33.842 42.7299 33.7828 42.467C33.7237 42.204 33.7473 41.9292 33.8505 41.6802C33.9537 41.4312 34.1314 41.2203 34.3592 41.0762C34.587 40.9322 34.8538 40.8623 35.123 40.8759L36.057 40.9229C36.2396 40.9324 36.4221 40.9034 36.5927 40.8379C36.7633 40.7723 36.9183 40.6717 37.0475 40.5424C37.1768 40.4132 37.2775 40.2582 37.343 40.0876C37.4085 39.9169 37.4375 39.7344 37.428 39.5519L37.381 38.6179C37.3674 38.3487 37.4374 38.0819 37.5814 37.8541C37.7254 37.6262 37.9363 37.4485 38.1853 37.3454C38.4343 37.2422 38.7091 37.2185 38.9721 37.2777C39.235 37.3369 39.4732 37.476 39.654 37.6759L40.281 38.3759Z" stroke="#33D67B" stroke-opacity="0.8" stroke-width="1.5" stroke-linecap="round" stroke-linejoin="round"/>
<path d="M41.25 46.626C42.2855 46.626 43.125 45.7865 43.125 44.751C43.125 43.7154 42.2855 42.876 41.25 42.876C40.2145 42.876 39.375 43.7154 39.375 44.751C39.375 45.7865 40.2145 46.626 41.25 46.626Z" stroke="#33D67B" stroke-opacity="0.8" stroke-width="1.5" stroke-linecap="round" stroke-linejoin="round"/>
<path d="M51.6379 34C51.5638 34 51.4913 34.022 51.4296 34.0632C51.3679 34.1044 51.3199 34.163 51.2915 34.2315C51.2631 34.3 51.2557 34.3754 51.2701 34.4482C51.2846 34.5209 51.3203 34.5877 51.3728 34.6402C51.4252 34.6926 51.492 34.7283 51.5648 34.7428C51.6375 34.7573 51.7129 34.7498 51.7814 34.7215C51.85 34.6931 51.9085 34.645 51.9497 34.5833C51.9909 34.5217 52.0129 34.4492 52.0129 34.375C52.0129 34.2755 51.9734 34.1802 51.9031 34.1098C51.8328 34.0395 51.7374 34 51.6379 34Z" stroke="#33D67B" stroke-opacity="0.8" stroke-width="1.5" stroke-linecap="round" stroke-linejoin="round"/>
<path d="M54.1941 30.8479C54.3298 30.7951 54.4779 30.7829 54.6204 30.8129C54.7629 30.8428 54.8936 30.9136 54.9965 31.0165C55.0995 31.1195 55.1702 31.2502 55.2002 31.3926C55.2301 31.5351 55.2179 31.6833 55.1651 31.8189L54.6651 33.1049C54.6072 33.2534 54.5982 33.4165 54.6394 33.5704C54.6806 33.7244 54.7698 33.8612 54.8941 33.9609L55.9691 34.8249C56.0825 34.916 56.167 35.0382 56.2123 35.1764C56.2576 35.3147 56.2616 35.4632 56.224 35.6037C56.1864 35.7442 56.1087 35.8708 56.0004 35.968C55.8921 36.0651 55.7579 36.1287 55.6141 36.1509L54.2511 36.3619C54.0936 36.386 53.9479 36.4597 53.8351 36.5723C53.7223 36.6849 53.6484 36.8305 53.6241 36.9879L53.4131 38.3519C53.3909 38.4957 53.3273 38.6299 53.2301 38.7382C53.133 38.8465 53.0064 38.9242 52.8659 38.9618C52.7253 38.9995 52.5769 38.9954 52.4386 38.9501C52.3003 38.9049 52.1782 38.8204 52.0871 38.7069L51.2231 37.6319C51.1233 37.5077 50.9865 37.4185 50.8326 37.3772C50.6788 37.3358 50.5157 37.3445 50.3671 37.4019L49.0811 37.9019C48.9454 37.9548 48.7973 37.9669 48.6548 37.937C48.5123 37.9071 48.3816 37.8363 48.2787 37.7334C48.1757 37.6304 48.105 37.4997 48.075 37.3572C48.0451 37.2147 48.0573 37.0666 48.1101 36.9309L48.6101 35.6449C48.668 35.4965 48.6769 35.3334 48.6358 35.1794C48.5946 35.0255 48.5054 34.8887 48.3811 34.7889L47.3061 33.9239C47.1929 33.8329 47.1086 33.7109 47.0634 33.5728C47.0183 33.4347 47.0143 33.2865 47.0519 33.1462C47.0895 33.0059 47.1672 32.8795 47.2753 32.7825C47.3835 32.6855 47.5175 32.6221 47.6611 32.5999L49.0241 32.3889C49.1816 32.3645 49.3273 32.2906 49.44 32.1778C49.5527 32.0651 49.6267 31.9195 49.6511 31.7619L49.8621 30.3999C49.8841 30.2561 49.9475 30.1218 50.0445 30.0135C50.1416 29.9051 50.2681 29.8273 50.4086 29.7897C50.5492 29.752 50.6976 29.7561 50.8359 29.8014C50.9741 29.8468 51.0961 29.9314 51.1871 30.0449L52.0521 31.1199C52.152 31.2441 52.2888 31.3332 52.4427 31.3744C52.5966 31.4155 52.7596 31.4066 52.9081 31.3489L54.1941 30.8479Z" stroke="#33D67B" stroke-opacity="0.8" stroke-width="1.5" stroke-linecap="round" stroke-linejoin="round"/>
<defs>
<clipPath id="clip0">
<rect width="101.538" height="60" fill="white" transform="translate(176 124)"/>
</clipPath>
</defs>
</svg>
